<?xml version="1.0" standalone="no"?>
<!DOCTYPE svg PUBLIC "-//W3C//DTD SVG 20010904//EN"
 "http://www.w3.org/TR/2001/REC-SVG-20010904/DTD/svg10.dtd">
<svg version="1.0" xmlns="http://www.w3.org/2000/svg"
 width="394.000000pt" height="394.000000pt" viewBox="0 0 394.000000 394.000000"
 preserveAspectRatio="xMidYMid meet">

<g transform="translate(0.000000,394.000000) scale(0.100000,-0.100000)"
fill="#000000" stroke="none">
<path d="M2300 3856 c-87 -51 -114 -78 -162 -161 -32 -57 -39 -95 -16 -95 5 0
7 7 4 16 -3 8 1 22 9 30 13 14 15 14 15 1 0 -11 7 -13 23 -9 20 5 21 4 8 -11
-17 -22 -3 -22 21 0 10 9 18 11 18 6 0 -6 -7 -16 -15 -23 -16 -13 -47 -71 -41
-77 8 -8 34 10 30 21 -6 15 22 47 59 65 26 14 32 26 29 63 -1 9 14 34 33 54
19 20 35 47 35 60 0 12 5 24 12 26 9 3 22 78 14 78 -1 0 -35 -20 -76 -44z
m-106 -190 c-3 -9 -12 -12 -22 -9 -15 6 -9 11 25 22 1 1 0 -5 -3 -13z"/>
<path d="M2425 3850 c-3 -6 4 -10 17 -11 l23 0 -24 -10 c-20 -8 -22 -11 -10
-26 12 -14 11 -15 -9 -9 -13 5 -22 3 -22 -3 0 -12 88 -13 95 -2 2 4 -3 21 -10
39 -14 32 -46 44 -60 22z"/>
<path d="M1040 3767 c-28 -23 -62 -78 -56 -93 3 -8 -1 -17 -8 -20 -11 -4 -12
-12 -4 -36 6 -17 8 -56 4 -90 -5 -50 -4 -59 9 -54 8 3 17 1 20 -4 4 -6 1 -10
-4 -10 -6 0 -11 -5 -11 -11 0 -6 9 -8 23 -4 21 6 21 6 3 -9 -25 -20 -50 -21
-42 -1 3 9 0 15 -9 15 -17 0 -28 -31 -19 -55 6 -15 3 -17 -19 -11 -18 4 -27 2
-27 -5 0 -7 3 -9 7 -6 8 8 33 -11 33 -25 0 -6 -8 -4 -17 3 -15 12 -16 12 -11
-7 4 -15 1 -20 -13 -19 -21 1 -39 15 -21 15 7 0 12 4 12 9 0 17 -43 -2 -47
-21 -3 -10 -9 -18 -14 -18 -5 0 -9 -6 -9 -14 0 -7 -6 -19 -14 -25 -11 -9 -15
-7 -20 11 -6 23 -6 22 -37 -11 -26 -26 -29 -35 -18 -42 8 -5 23 -8 33 -6 29 3
29 -16 1 -30 -14 -6 -23 -7 -19 -2 3 5 2 14 -1 19 -8 12 -28 -6 -39 -35 -4
-11 -4 -16 0 -13 3 4 17 -4 31 -18 28 -28 28 -29 -4 -38 -19 -6 -23 -4 -23 14
0 12 -4 19 -9 15 -5 -3 -8 -19 -6 -35 2 -16 -1 -32 -7 -36 -7 -4 -6 -9 3 -15
11 -6 11 -11 1 -21 -9 -9 -12 -9 -14 3 -3 30 -4 35 -17 54 -11 18 -12 18 -8
-10 6 -40 -14 -188 -32 -235 -8 -21 -26 -110 -47 -225 -10 -56 -35 -180 -40
-197 -4 -14 1 -18 24 -18 35 0 45 -9 31 -27 -9 -10 -8 -13 4 -13 10 0 14 -6
11 -15 -5 -12 -13 -8 -35 16 -33 36 -36 35 -43 -7 -4 -23 -1 -36 15 -50 20
-18 20 -18 14 9 -6 22 -4 26 8 21 18 -7 17 -23 -5 -56 -9 -14 -14 -35 -11 -51
4 -19 0 -29 -11 -33 -12 -5 -14 -10 -6 -19 8 -9 5 -14 -9 -18 -19 -5 -20 -11
-15 -83 3 -44 12 -108 20 -142 8 -35 11 -69 7 -75 -3 -7 -2 -9 2 -4 5 4 14 -7
20 -25 6 -18 16 -32 22 -31 6 1 14 -4 17 -12 3 -8 1 -15 -4 -15 -17 0 -11 -18
6 -22 12 -2 5 -10 -22 -28 -20 -14 -40 -31 -42 -39 -4 -11 1 -10 19 2 30 22
38 21 32 -2 -3 -10 0 -22 6 -25 6 -4 9 -2 6 6 -7 18 33 81 46 72 6 -3 8 -12 5
-19 -2 -7 -2 -16 1 -19 4 -3 7 -19 7 -35 1 -16 -1 -28 -3 -26 -2 2 -10 -2 -18
-10 -21 -21 -39 -19 -21 3 20 23 30 65 15 59 -7 -2 -11 -13 -10 -23 1 -10 -5
-23 -13 -27 -9 -5 -13 -16 -9 -28 4 -12 -3 -34 -16 -57 l-23 -37 38 35 c45 41
61 58 80 85 8 11 18 17 22 12 4 -4 2 -13 -4 -19 -17 -17 -15 -33 3 -18 8 7 15
19 15 28 0 8 3 12 7 9 3 -4 0 -19 -7 -33 -12 -21 -12 -27 0 -34 7 -4 19 -6 25
-4 7 3 15 -2 19 -12 4 -12 2 -15 -9 -10 -16 6 -18 -5 -9 -42 4 -15 12 -21 23
-18 29 9 43 -8 32 -37 -8 -20 -7 -26 2 -24 7 1 11 -8 9 -27 -3 -18 0 -26 7
-22 6 4 11 16 11 27 0 10 4 19 9 19 11 0 11 -49 -1 -56 -5 -3 -4 -12 3 -20 12
-14 29 -10 29 7 0 6 -5 7 -10 4 -6 -3 -10 -1 -10 4 0 13 20 14 39 2 12 -8 12
-12 2 -25 -11 -13 -11 -16 -1 -16 7 0 19 -8 26 -17 13 -17 14 -17 7 2 -3 11
-2 17 2 12 5 -4 17 1 28 10 15 13 21 15 24 6 3 -7 11 -13 18 -13 7 0 16 6 18
13 3 6 6 2 6 -9 1 -24 41 -41 52 -22 9 14 29 1 29 -18 0 -8 -5 -12 -11 -9 -5
4 -18 -3 -28 -14 -10 -12 -23 -21 -29 -21 -6 0 -12 -6 -15 -12 -3 -10 -7 -10
-19 0 -13 10 -17 10 -21 0 -4 -10 -7 -10 -15 1 -8 11 -12 9 -22 -9 -6 -12 -9
-24 -6 -28 3 -3 6 0 6 6 0 7 5 12 10 12 6 0 10 -6 10 -14 0 -7 11 -21 25 -30
14 -9 25 -14 25 -11 0 3 9 -4 20 -15 19 -19 19 -22 6 -36 -9 -8 -23 -31 -32
-50 -9 -20 -20 -31 -23 -26 -3 5 -17 13 -31 17 -14 4 -22 4 -18 0 3 -3 0 -21
-7 -39 -8 -20 -11 -49 -8 -77 5 -41 -6 -50 -15 -11 -9 38 2 120 18 136 16 16
12 30 -5 16 -12 -10 -15 -9 -15 5 0 12 -5 15 -16 11 -15 -6 -15 -4 0 19 14 21
14 25 2 25 -15 0 -47 -39 -61 -75 -5 -13 -9 -16 -12 -7 -3 7 1 19 7 28 7 8 10
17 7 21 -4 3 -9 -2 -13 -11 -3 -9 -13 -16 -21 -16 -11 0 -13 4 -6 12 12 15 13
78 3 78 -13 0 -32 -29 -26 -38 3 -5 -8 -9 -24 -9 -26 0 -30 4 -29 26 0 24 1
24 9 6 6 -14 9 -15 9 -5 1 9 -6 25 -14 37 -14 21 -14 23 5 35 21 13 28 38 10
38 -5 0 -10 -7 -10 -16 0 -9 -6 -14 -14 -11 -10 4 -13 -12 -14 -74 0 -43 4
-79 9 -79 5 0 9 5 9 12 0 6 2 9 5 6 3 -3 -1 -21 -9 -39 -11 -24 -18 -103 -25
-274 -6 -145 -16 -268 -26 -310 -51 -227 -86 -333 -135 -414 -17 -26 -30 -51
-30 -55 0 -3 376 -6 835 -6 730 0 833 2 829 15 -4 8 -10 12 -15 9 -5 -3 -9 0
-9 5 0 14 26 14 51 0 44 -23 34 -1 -27 64 -35 38 -64 63 -64 55 -1 -7 -8 1
-17 17 -9 17 -22 34 -29 38 -16 9 -19 43 -4 52 15 9 12 25 -4 25 -8 0 -19 12
-24 28 -9 24 -10 25 -11 5 -1 -24 -21 -33 -21 -9 0 12 -20 63 -50 131 -5 11
-20 46 -34 78 -14 31 -29 57 -34 57 -6 0 -14 28 -18 63 -7 58 -8 60 -15 27 -6
-32 -6 -31 -8 16 0 27 -8 59 -16 70 -14 19 -14 19 -15 -3 0 -12 6 -23 13 -26
9 -3 9 -8 1 -17 -9 -8 -8 -23 2 -57 8 -26 14 -57 14 -71 0 -22 -2 -23 -16 -11
-15 13 -16 11 -10 -21 14 -70 14 -93 1 -134 l-13 -41 -1 38 c-1 41 -21 52 -21
11 0 -14 -4 -23 -10 -19 -5 3 -10 -1 -10 -10 0 -9 4 -14 9 -10 14 8 19 -7 11
-35 -7 -23 -8 -24 -14 -5 -4 11 -12 28 -17 37 -5 10 -9 29 -9 42 0 36 -11 61
-20 45 -13 -20 -33 28 -21 49 9 15 11 14 12 -8 1 -20 3 -18 8 10 9 47 3 64
-16 48 -12 -10 -14 -9 -13 3 1 7 2 23 1 34 -2 21 -5 16 -33 -55 -10 -25 -26
-56 -61 -120 l-19 -35 7 35 c4 19 7 52 8 72 1 20 8 43 15 49 6 7 12 24 11 38
-1 26 -1 26 -14 -4 -8 -16 -14 -23 -15 -15 -1 31 -20 -14 -20 -47 0 -18 -8
-41 -18 -51 -9 -9 -25 -33 -35 -52 l-18 -35 6 55 c6 51 5 53 -9 35 -8 -11 -16
-31 -16 -45 -1 -44 -17 -56 -22 -16 -2 20 -2 39 1 42 3 2 6 15 8 27 2 12 8 39
14 61 6 21 9 40 7 42 -6 5 -34 -55 -48 -104 -7 -23 -15 -40 -17 -38 -5 4 14
147 23 179 4 12 0 17 -16 17 -17 0 -20 -6 -19 -32 3 -41 -9 -80 -22 -73 -5 4
-9 -6 -9 -22 0 -15 -4 -34 -9 -41 -15 -24 -44 56 -43 122 0 60 -1 60 -11 24
-6 -21 -14 -38 -19 -38 -4 0 -8 -9 -8 -21 0 -11 -4 -17 -10 -14 -5 3 -10 15
-10 26 0 11 -4 18 -9 15 -4 -3 -7 -29 -5 -58 2 -29 1 -46 -2 -38 -4 8 -12 29
-20 45 -7 17 -15 53 -17 80 -3 30 -9 49 -15 48 -8 -2 -9 5 -2 23 13 33 13 34
-5 28 -8 -4 -15 -14 -16 -23 -1 -9 -4 -6 -9 9 -12 38 -12 178 1 185 7 5 8 32
4 81 -5 52 -4 74 4 74 6 0 11 -8 11 -17 1 -14 4 -12 15 7 l14 25 1 -27 c0 -33
15 -37 23 -6 8 27 17 19 27 -24 l8 -33 2 40 2 40 9 -30 c5 -16 7 -38 5 -48 -4
-16 -2 -16 12 -5 14 11 15 10 7 -12 -4 -14 -10 -47 -12 -75 -4 -40 -2 -48 8
-38 19 19 17 160 -5 288 -3 17 -3 21 0 11 3 -10 15 -33 25 -50 11 -18 19 -50
19 -76 0 -50 9 -90 19 -90 4 0 8 10 9 23 2 25 10 62 12 62 7 0 7 42 0 54 -8
13 -9 12 -10 -6 0 -12 -5 -25 -10 -28 -6 -4 -10 6 -10 22 0 16 -7 38 -15 49
-18 23 -19 47 -3 42 7 -3 20 5 30 16 15 18 19 19 28 6 9 -13 11 -13 20 0 5 8
11 19 12 23 2 4 13 9 26 10 12 1 22 8 22 16 0 12 3 12 12 3 24 -24 29 -11 7
20 -20 28 -21 31 -5 25 17 -7 18 -3 13 39 -2 25 -10 51 -17 57 -10 9 -11 7 -6
-13 7 -23 6 -24 -8 -7 -8 10 -17 14 -20 8 -3 -5 1 -16 9 -24 17 -18 19 -27 6
-27 -5 0 -13 9 -16 20 -3 11 -11 20 -17 20 -5 0 -7 -7 -4 -16 5 -12 1 -14 -16
-8 -17 5 -20 3 -15 -10 5 -13 3 -15 -11 -8 -9 5 -22 7 -29 5 -6 -2 -16 5 -22
15 -9 16 -7 19 7 18 12 -1 16 5 14 18 -3 18 -2 18 13 2 23 -22 35 -20 32 6 -1
15 5 23 21 27 21 6 22 8 8 26 -9 11 -16 29 -16 39 0 15 -3 17 -11 9 -13 -13
-79 21 -79 40 0 7 4 7 12 -1 17 -17 33 -15 18 3 -7 8 -19 15 -26 15 -8 0 -14
5 -14 10 0 6 -4 10 -10 10 -14 0 -13 -27 1 -32 6 -2 9 -13 7 -23 -4 -16 -7
-14 -20 15 -8 19 -12 40 -7 45 4 6 -5 35 -20 66 l-29 55 24 11 c21 10 24 8 33
-21 10 -28 9 -29 -4 -12 -8 11 -18 17 -21 13 -11 -10 16 -37 53 -52 22 -9 33
-21 33 -34 0 -11 4 -22 9 -25 5 -3 5 12 0 35 -12 52 -6 59 17 20 10 -16 21
-28 26 -25 14 9 9 17 -37 69 -44 49 -54 80 -25 80 8 0 17 -11 20 -24 3 -14 12
-27 20 -29 12 -4 13 -3 2 10 -7 9 -9 24 -5 33 4 13 3 16 -5 11 -21 -13 -13 4
14 29 19 18 22 25 12 25 -9 0 -19 7 -22 16 -10 26 -7 28 14 9 18 -16 20 -16
20 -2 0 10 -4 17 -10 17 -5 0 -7 7 -4 15 4 8 2 15 -3 15 -5 0 -18 7 -29 16
-18 15 -18 15 8 11 38 -6 56 7 39 27 -8 9 -19 16 -27 16 -7 0 -16 6 -20 13 -4
6 -4 9 1 5 4 -4 15 -2 23 4 11 10 17 9 27 -5 7 -9 17 -17 24 -17 19 0 12 19
-15 36 -17 12 -21 19 -13 24 6 4 9 12 5 18 -3 6 -1 12 4 14 6 2 13 35 16 73 3
39 7 75 9 82 2 6 -3 17 -10 23 -8 7 -12 16 -9 21 3 5 0 9 -6 9 -7 0 -9 8 -5
20 4 11 2 20 -4 20 -6 0 -11 -4 -11 -10 0 -5 -5 -10 -11 -10 -5 0 -8 4 -5 9 4
5 0 12 -6 15 -10 5 -10 7 0 12 6 3 12 13 12 22 0 15 -2 15 -10 2 -9 -15 -11
-14 -14 13 -2 13 -25 11 -41 -4 -7 -7 -3 -8 9 -3 13 5 17 4 12 -4 -6 -11 -46
-13 -46 -2 1 13 28 40 41 40 10 0 10 3 1 12 -9 9 -18 6 -38 -13 -17 -15 -28
-20 -31 -12 -2 7 -11 9 -19 6 -8 -3 -14 -2 -13 3 3 19 -2 33 -17 49 -9 8 -13
22 -10 30 7 18 24 20 23 3 -1 -37 4 -46 26 -44 14 0 23 7 23 18 0 10 -3 18 -6
18 -3 0 -5 10 -6 23 0 12 -4 31 -9 42 -6 14 -2 12 13 -7 13 -15 19 -33 16 -42
-11 -29 24 -17 43 14 19 32 29 37 36 18 4 -10 7 -10 18 0 10 9 10 15 1 24 -10
10 -17 10 -34 -1 -17 -11 -22 -11 -29 1 -5 7 -9 16 -9 21 0 12 28 8 33 -5 3
-7 10 1 16 17 13 34 16 40 36 75 9 15 15 19 15 10 1 -11 4 -10 16 5 11 15 18
17 32 9 10 -7 26 -8 39 -3 18 7 21 5 16 -9 -4 -10 6 -5 25 13 23 23 28 33 19
43 -8 10 -7 16 4 23 16 10 15 10 -23 13 -16 1 -28 -2 -28 -6 0 -4 4 -8 9 -8 5
0 4 -11 -2 -24 -7 -13 -15 -22 -20 -19 -4 2 -14 -1 -22 -7 -12 -10 -15 -9 -15
3 0 8 6 17 12 19 8 3 -2 18 -25 40 -36 35 -37 36 -12 36 19 0 23 -4 15 -13
-16 -19 12 -26 35 -9 10 8 13 14 7 14 -7 0 -12 5 -12 10 0 6 9 10 20 10 16 0
20 7 20 33 0 18 6 39 13 46 10 10 6 12 -18 9 -33 -3 -53 -41 -33 -65 8 -10 7
-13 -5 -13 -8 0 -17 6 -20 13 -3 9 -9 9 -27 -1 -12 -8 -19 -9 -15 -3 3 6 -2
19 -11 29 -16 15 -17 15 -12 0 5 -13 2 -16 -15 -15 -12 1 -29 8 -37 16 -13 13
-13 14 2 9 9 -4 22 0 29 8 17 20 55 14 51 -8 -2 -10 2 -18 8 -18 5 0 10 9 10
21 0 16 4 19 17 15 10 -4 14 -4 10 0 -11 11 13 33 29 27 8 -3 14 0 14 7 0 12
-18 10 -72 -6 -13 -4 -18 0 -18 15 0 24 19 38 30 21 9 -14 30 -5 30 13 0 7 8
24 17 37 10 14 18 38 19 54 1 20 -1 24 -7 15 -7 -11 -9 -10 -9 4 0 9 6 17 14
17 7 0 16 13 19 30 5 23 10 28 24 23 16 -6 16 -5 4 11 -13 16 -13 17 5 14 13
-2 18 2 15 12 -17 69 -1 139 28 121 12 -8 12 -12 -2 -26 -19 -18 -23 -45 -7
-45 6 0 10 -4 10 -10 0 -5 -7 -7 -15 -4 -8 4 -15 1 -15 -4 0 -18 20 -24 35
-12 11 10 15 10 15 1 0 -7 4 -10 9 -7 5 4 7 -4 4 -16 l-5 -23 21 24 c12 13 21
29 21 37 0 8 4 14 9 14 14 0 20 -27 8 -39 -6 -6 -8 -14 -4 -18 11 -10 18 2 20
33 3 34 19 41 43 17 17 -17 18 -17 11 0 -11 30 4 42 19 16 10 -18 13 -20 14
-7 0 9 -5 20 -10 23 -6 4 -8 16 -5 28 5 16 4 18 -3 8 -9 -12 -13 -12 -26 2
-15 15 -15 17 6 28 13 7 26 17 30 23 4 6 10 7 14 3 4 -3 1 -14 -7 -23 -12 -15
-12 -17 1 -12 8 3 15 16 15 31 0 33 15 48 17 16 2 -37 2 -42 -7 -69 -7 -22 -6
-23 9 -8 9 9 16 31 16 48 0 20 8 39 23 52 17 16 18 18 4 14 -10 -3 -15 -2 -12
4 3 5 19 7 35 3 30 -6 42 10 18 21 -7 3 -1 4 15 1 33 -6 37 12 5 24 -20 8 -21
10 -6 16 9 3 22 8 30 9 13 3 36 11 75 26 14 6 27 4 39 -4 17 -13 17 -14 -3
-20 -12 -4 -26 -12 -31 -19 -14 -16 74 -12 94 4 9 7 14 7 14 1 0 -5 -10 -17
-22 -25 -20 -14 -21 -18 -8 -26 8 -6 12 -11 8 -11 -4 0 -3 -14 2 -30 5 -17 5
-28 0 -25 -4 2 -13 -2 -20 -10 -6 -7 -17 -12 -24 -9 -8 3 -16 -5 -20 -20 -3
-14 -12 -26 -18 -26 -6 0 -34 -19 -61 -41 -39 -33 -51 -39 -58 -28 -7 11 -9 9
-9 -6 -1 -29 -26 -59 -45 -52 -20 8 -19 -3 3 -19 11 -9 13 -13 4 -14 -7 0 -11
-4 -7 -10 3 -5 12 -7 20 -3 11 4 15 -2 14 -23 -1 -24 -2 -25 -7 -9 -4 11 -15
21 -24 21 -21 2 -32 -25 -13 -32 7 -3 11 -12 8 -20 -3 -8 0 -14 7 -14 7 0 10
-7 6 -16 -5 -12 -2 -15 10 -10 8 3 20 6 25 6 5 0 9 6 9 14 0 19 41 12 53 -9 7
-14 11 -14 29 -1 18 13 25 13 56 0 31 -13 38 -13 59 1 29 20 39 45 42 109 1
27 6 57 11 66 5 9 6 27 3 39 -4 15 0 26 13 35 17 13 17 14 -3 24 -20 11 -43
57 -48 95 -2 22 -1 22 27 -5 28 -27 50 -34 42 -13 -4 8 -10 12 -15 9 -5 -3 -9
0 -9 5 0 6 9 11 20 11 11 0 20 6 20 14 0 8 5 16 11 18 23 8 -19 34 -50 32 -27
-2 -30 0 -20 12 7 9 20 12 31 8 15 -5 19 -2 16 13 -2 10 -13 19 -26 21 -12 2
-22 6 -22 10 0 9 43 37 52 34 3 -1 9 5 12 13 6 17 -19 21 -29 5 -4 -6 -11 -7
-17 -4 -6 4 -14 0 -19 -7 -7 -11 -12 -10 -27 7 -10 12 -31 21 -51 23 -43 2
-47 6 -31 26 10 12 10 15 -4 15 -9 0 -16 8 -16 18 0 14 -4 12 -20 -8 -11 -14
-20 -36 -19 -50 0 -24 0 -25 15 -5 13 17 16 18 24 5 5 -8 13 -15 17 -16 28 -2
93 -26 93 -34 0 -13 -17 -13 -25 0 -5 8 -11 8 -19 1 -8 -6 -16 -7 -22 -1 -5 5
-31 11 -58 14 -47 6 -50 4 -92 -36 -24 -24 -50 -43 -57 -44 -32 -3 -37 -5 -37
-15 0 -6 7 -8 16 -5 10 4 14 1 12 -6 -5 -14 -32 -15 -67 -4 l-24 8 24 20 24
19 -35 -17 c-34 -17 -34 -17 -12 -27 28 -13 29 -31 1 -22 -18 6 -19 5 -7 -14
14 -23 24 -26 33 -11 3 6 14 10 23 10 14 -1 14 -2 -3 -12 -39 -21 -131 -121
-116 -126 7 -2 17 2 22 9 4 7 11 10 14 7 12 -11 -5 -28 -42 -43 -37 -16 -61
-11 -31 6 9 5 19 23 23 39 8 34 48 80 70 80 8 0 15 5 15 11 0 6 -9 9 -19 6
-16 -4 -19 1 -18 32 0 20 5 42 11 50 9 11 6 13 -14 7 -19 -6 -15 -1 15 20 21
15 34 29 27 32 -7 2 -26 -8 -43 -22 -36 -31 -54 -34 -37 -6 7 11 18 20 25 20
7 0 17 9 23 20 6 11 15 18 21 14 14 -9 59 24 59 43 0 14 -3 13 -20 -5 -20 -22
-67 -32 -55 -12 3 6 -2 10 -12 10 -16 1 -15 3 5 19 25 22 29 36 8 28 -8 -3
-16 -1 -18 4 -2 6 -20 11 -41 12 -20 0 -37 5 -37 9 0 16 -25 8 -37 -11 -11
-17 -9 -21 7 -26 11 -3 30 -1 42 6 21 11 22 11 9 -5 -16 -19 -6 -35 11 -18 16
16 31 15 22 0 -13 -21 -11 -47 4 -53 11 -4 9 -11 -12 -32 -14 -14 -29 -23 -32
-20 -4 3 1 13 10 22 21 22 20 28 -4 20 -12 -4 -27 -1 -35 5 -10 8 -19 8 -34 0
-28 -14 -27 1 1 19 19 12 23 11 33 -3 15 -20 26 -21 19 -1 -7 17 -63 47 -74
40 -5 -3 -11 1 -14 7 -3 7 -3 3 0 -9 4 -17 -4 -32 -30 -58 -20 -20 -36 -41
-36 -48 0 -7 -11 -17 -25 -23 -21 -10 -25 -9 -31 8 -3 11 -1 25 6 32 10 8 11
6 5 -11 -8 -28 6 -30 22 -5 9 15 7 21 -8 30 -21 13 -15 42 8 42 9 0 13 -6 10
-14 -4 -10 0 -12 14 -9 26 7 33 21 20 37 -8 10 -7 16 3 26 19 15 0 39 -24 33
-9 -3 -22 3 -29 11 -27 33 -50 17 -96 -66 -5 -10 -15 -18 -22 -18 -7 0 -13 -4
-13 -10 0 -15 9 -12 41 11 19 14 29 16 27 7 -2 -8 4 -12 15 -10 9 2 17 -2 17
-8 0 -5 -4 -10 -10 -10 -5 0 -10 -7 -10 -15 0 -9 -6 -12 -17 -8 -13 5 -15 2
-10 -12 4 -9 3 -23 -3 -30 -8 -9 -4 -11 17 -8 l28 5 -29 -16 c-19 -11 -33 -13
-45 -6 -9 5 -11 10 -6 10 6 0 3 5 -5 10 -10 6 -11 10 -2 10 6 0 12 9 12 21 0
11 -4 17 -10 14 -5 -3 -10 1 -10 9 0 24 -17 19 -36 -9 -21 -32 -29 -27 -13 8
6 13 22 30 35 36 33 15 30 31 -6 31 -27 0 -30 3 -30 29 0 31 -14 49 -25 31 -3
-5 -1 -10 4 -10 6 0 11 -7 11 -16 0 -10 -5 -14 -15 -10 -11 4 -17 -3 -22 -25
-5 -25 -8 -28 -15 -15 -10 18 -1 57 16 69 6 4 0 6 -13 4 -14 -2 -27 -9 -29
-15 -5 -17 -22 -15 -22 3 0 7 7 18 15 22 16 9 9 25 -19 40 -12 7 -25 32 -33
64 -8 33 -23 63 -39 77 -28 25 -42 27 -64 9z m124 -177 c18 0 16 -5 -18 -36
-43 -39 -55 -37 -39 6 6 17 9 40 7 52 l-5 23 17 -22 c9 -13 26 -23 38 -23z
m-80 11 c3 -5 0 -11 -7 -14 -8 -3 -14 1 -14 9 0 16 13 19 21 5z m-73 -64 c-8
-8 -11 -3 -11 19 1 25 2 27 11 11 8 -14 8 -22 0 -30z m420 -20 c-13 -13 -26
-3 -16 12 3 6 11 8 17 5 6 -4 6 -10 -1 -17z m74 9 c-10 -7 -15 -18 -12 -23 9
-14 -26 -11 -35 2 -11 14 -10 27 1 20 5 -3 12 -2 15 3 2 4 14 8 26 9 21 2 21
1 5 -11z m-455 -17 c0 -5 -4 -9 -10 -9 -5 0 -10 7 -10 16 0 8 5 12 10 9 6 -3
10 -10 10 -16z m136 -6 c-8 -8 -36 5 -36 17 0 7 6 7 21 0 11 -7 18 -14 15 -17z
m-16 -55 c0 -12 -5 -15 -16 -11 -13 5 -13 8 -2 15 10 8 10 11 0 15 -6 2 -9 9
-6 15 8 13 24 -10 24 -34z m-80 28 c0 -2 -7 -6 -15 -10 -8 -3 -15 -1 -15 4 0
6 7 10 15 10 8 0 15 -2 15 -4z m190 -22 c0 -8 -4 -14 -10 -14 -5 0 -10 9 -10
21 0 11 5 17 10 14 6 -3 10 -13 10 -21z m-38 -16 c-15 -15 -16 -42 -2 -33 16
10 11 -4 -9 -27 -20 -20 -20 -20 -17 16 2 20 -1 36 -5 36 -5 0 -9 5 -9 11 0 6
9 8 20 4 13 -4 20 -2 20 6 0 7 3 9 7 6 4 -4 1 -13 -5 -19z m373 -14 c13 -5 8
-11 -22 -28 -21 -12 -47 -25 -57 -29 -16 -6 -17 -5 -7 7 7 9 22 18 33 22 11 3
17 12 14 20 -6 15 11 18 39 8z m-490 -34 c3 -5 2 -10 -4 -10 -5 0 -13 5 -16
10 -3 6 -2 10 4 10 5 0 13 -4 16 -10z m518 -12 c-7 -11 -63 -20 -63 -10 0 5
65 31 68 27 2 -2 0 -9 -5 -17z m-546 -20 c-3 -8 -6 -5 -6 6 -1 11 2 17 5 13 3
-3 4 -12 1 -19z m233 7 c-7 -8 -9 -15 -4 -16 5 0 0 -4 -11 -8 -31 -13 -38 -2
-13 19 27 23 45 26 28 5z m-209 -28 c-10 -9 -11 -8 -5 6 3 10 9 15 12 12 3 -3
0 -11 -7 -18z m509 3 c0 -5 -2 -10 -4 -10 -3 0 -8 5 -11 10 -3 6 -1 10 4 10 6
0 11 -4 11 -10z m99 -6 c12 -12 -10 -14 -29 -2 -18 10 -24 10 -27 1 -3 -7 -9
-13 -15 -13 -6 0 -5 6 3 16 11 14 54 13 68 -2z m-311 -10 c6 3 14 1 17 -5 4
-5 13 -8 21 -5 8 3 14 1 14 -4 0 -14 -24 -12 -38 2 -9 9 -12 9 -12 0 0 -22
-26 -12 -27 10 -2 16 0 19 6 9 5 -7 13 -11 19 -7z m162 9 c0 -5 -15 -16 -33
-26 l-32 -18 25 25 c25 25 40 32 40 19z m-245 -23 c-10 -11 -21 -17 -24 -14
-3 3 3 12 13 20 28 20 32 17 11 -6z m-92 -10 c3 -11 1 -23 -4 -26 -5 -3 -9 6
-9 20 0 31 6 34 13 6z m257 16 c0 -3 -4 -8 -10 -11 -5 -3 -10 -1 -10 4 0 6 5
11 10 11 6 0 10 -2 10 -4z m209 -5 c11 -7 9 -10 -8 -16 -13 -4 -25 -4 -28 -1
-4 3 -1 6 6 6 7 0 9 5 6 10 -8 12 5 13 24 1z m-799 -16 c0 -8 -2 -15 -4 -15
-2 0 -6 7 -10 15 -3 8 -1 15 4 15 6 0 10 -7 10 -15z m277 -27 c-3 -8 -6 -5 -6
6 -1 11 2 17 5 13 3 -3 4 -12 1 -19z m488 -38 c3 -5 -1 -10 -10 -10 -9 0 -13
5 -10 10 3 6 8 10 10 10 2 0 7 -4 10 -10z m-195 -10 c0 -5 -2 -10 -4 -10 -3 0
-8 5 -11 10 -3 6 -1 10 4 10 6 0 11 -4 11 -10z m90 -11 c0 -5 -7 -9 -15 -9
-15 0 -20 12 -9 23 8 8 24 -1 24 -14z m-45 -31 c-2 -18 1 -37 4 -43 8 -10 -11
-57 -23 -56 -21 2 -25 -1 -20 -14 4 -8 2 -15 -4 -15 -16 0 -22 28 -8 39 7 6
15 8 18 6 8 -9 18 53 12 70 -5 12 10 45 21 45 1 0 1 -15 0 -32z m-580 -18 c-9
-41 -17 -33 -9 9 4 17 9 30 11 27 3 -2 2 -19 -2 -36z m535 24 c0 -3 -7 -12
-15 -20 -16 -17 -18 -14 -9 10 6 15 24 23 24 10z m-660 -41 c-11 -17 -11 -17
-6 0 3 10 6 24 7 30 0 9 2 9 5 0 3 -7 0 -20 -6 -30z m1307 -25 c-3 -7 -5 -2
-5 12 0 14 2 19 5 13 2 -7 2 -19 0 -25z m-37 7 c0 -8 -4 -15 -10 -15 -5 0 -10
7 -10 15 0 8 5 15 10 15 6 0 10 -7 10 -15z m-803 -17 c-3 -8 -6 -5 -6 6 -1 11
2 17 5 13 3 -3 4 -12 1 -19z m113 12 c0 -5 -2 -10 -4 -10 -3 0 -8 5 -11 10 -3
6 -1 10 4 10 6 0 11 -4 11 -10z m50 0 c0 -5 -4 -10 -10 -10 -5 0 -10 5 -10 10
0 6 5 10 10 10 6 0 10 -4 10 -10z m-728 -72 c-8 -8 -9 -4 -5 13 4 13 8 18 11
10 2 -7 -1 -18 -6 -23z m567 15 c-7 -10 -14 -19 -15 -21 -1 -1 -4 6 -7 18 -4
15 0 20 15 20 18 0 19 -2 7 -17z m-302 -15 c-3 -8 -6 -5 -6 6 -1 11 2 17 5 13
3 -3 4 -12 1 -19z m333 7 c-7 -9 -15 -13 -17 -11 -7 7 7 26 19 26 6 0 6 -6 -2
-15z m-560 -10 c-7 -9 -15 -13 -17 -11 -7 7 7 26 19 26 6 0 6 -6 -2 -15z m600
0 c0 -10 -40 -49 -45 -44 -6 6 27 49 38 49 4 0 7 -2 7 -5z m110 -14 c0 -6 -4
-13 -10 -16 -5 -3 -10 1 -10 9 0 9 5 16 10 16 6 0 10 -4 10 -9z m-750 -17 c0
-8 -5 -12 -10 -9 -6 4 -8 11 -5 16 9 14 15 11 15 -7z m530 -4 c9 -17 8 -20 -9
-20 -14 0 -18 5 -14 20 3 11 7 20 9 20 2 0 8 -9 14 -20z m-452 -17 c15 -33 16
-57 2 -48 -6 4 -8 10 -5 15 3 4 -2 13 -10 20 -16 13 -21 40 -7 40 4 0 13 -12
20 -27z m483 -33 c-5 -28 -8 -31 -14 -17 -4 10 -3 26 2 35 4 9 6 24 4 32 -4
13 -3 13 6 0 5 -9 6 -31 2 -50z m66 8 c-15 -34 -31 -54 -43 -56 -15 -3 -17 -1
-6 9 6 7 12 26 12 41 0 17 5 28 14 28 7 0 19 7 26 15 21 26 20 17 -3 -37z m75
28 c3 -16 0 -23 -9 -22 -13 2 -15 10 -6 34 7 17 10 15 15 -12z m-526 -30 l-14
-27 -4 31 c-4 30 6 42 15 18 3 -7 6 -4 7 7 1 11 4 15 6 9 3 -6 -2 -23 -10 -38z
m-46 9 c10 -11 9 -17 -3 -29 -13 -14 -15 -12 -19 14 -5 33 3 38 22 15z m385
-15 c-3 -5 -12 -10 -18 -10 -7 0 -6 4 3 10 19 12 23 12 15 0z m176 -23 c-6 -8
-9 -22 -5 -31 7 -18 -3 -20 -26 -6 -12 7 -11 13 9 34 25 26 43 28 22 3z m79 8
c0 -8 -4 -15 -10 -15 -5 0 -10 7 -10 15 0 8 5 15 10 15 6 0 10 -7 10 -15z
m-615 -23 c-3 -3 -11 0 -18 7 -9 10 -8 11 6 5 10 -3 15 -9 12 -12z m579 -3
c-8 -14 -24 -10 -24 6 0 9 6 12 15 9 8 -4 12 -10 9 -15z m-719 1 c3 -5 2 -10
-4 -10 -5 0 -13 5 -16 10 -3 6 -2 10 4 10 5 0 13 -4 16 -10z m475 0 c0 -5 -2
-10 -4 -10 -3 0 -8 5 -11 10 -3 6 -1 10 4 10 6 0 11 -4 11 -10z m-431 -14 c10
-12 8 -13 -8 -9 -13 3 -21 1 -21 -8 0 -7 -3 -9 -6 -6 -4 4 -1 13 6 22 15 18
15 18 29 1z m162 -13 c-8 -15 -10 -15 -11 -2 0 17 10 32 18 25 2 -3 -1 -13 -7
-23z m320 -10 c-9 -16 -10 -14 -11 12 0 21 3 26 11 18 8 -8 8 -16 0 -30z
m-241 23 c0 -3 -4 -8 -10 -11 -5 -3 -10 -1 -10 4 0 6 5 11 10 11 6 0 10 -2 10
-4z m134 -29 c7 -6 6 -7 -4 -4 -8 2 -16 12 -17 23 -2 13 -1 15 4 4 3 -8 11
-19 17 -23z m56 3 c0 -5 -5 -10 -11 -10 -5 0 -7 5 -4 10 3 6 8 10 11 10 2 0 4
-4 4 -10z m90 -9 c0 -6 -4 -13 -10 -16 -5 -3 -10 1 -10 9 0 9 5 16 10 16 6 0
10 -4 10 -9z m-576 -52 c-17 -19 -26 -19 -26 -2 0 4 -4 14 -10 21 -7 8 -7 12
0 12 6 0 14 -4 17 -10 11 -18 25 -11 26 13 1 18 2 18 6 4 3 -10 -3 -27 -13
-38z m380 20 c-9 -10 -22 -19 -28 -19 -6 0 -3 5 7 11 9 5 17 17 17 25 0 8 5
12 11 9 7 -5 4 -14 -7 -26z m-444 5 c0 -8 -5 -12 -10 -9 -6 4 -8 11 -5 16 9
14 15 11 15 -7z m247 -6 c-3 -8 -6 -5 -6 6 -1 11 2 17 5 13 3 -3 4 -12 1 -19z
m423 3 c0 -6 -4 -13 -10 -16 -5 -3 -10 1 -10 9 0 9 5 16 10 16 6 0 10 -4 10
-9z m-318 -43 c-6 -6 -7 0 -4 19 5 21 7 23 10 9 2 -10 0 -22 -6 -28z m288 12
c0 -13 -11 -13 -30 0 -12 8 -11 10 8 10 12 0 22 -4 22 -10z m-45 -20 c3 -5 -3
-10 -15 -10 -12 0 -18 5 -15 10 3 6 10 10 15 10 5 0 12 -4 15 -10z m239 -15
c-4 -8 -10 -15 -15 -15 -4 0 -6 7 -3 15 4 8 10 15 15 15 4 0 6 -7 3 -15z
m-764 -30 c0 -3 -8 -1 -17 2 -12 5 -15 2 -10 -10 3 -9 4 -17 1 -17 -10 0 -42
45 -38 52 4 6 64 -19 64 -27z m213 21 c4 -10 0 -12 -14 -9 -10 3 -16 9 -13 14
8 13 21 11 27 -5z m97 -17 c0 -5 -9 -4 -19 3 -11 7 -17 16 -14 20 5 10 33 -10
33 -23z m211 10 c-16 -6 -28 -6 -35 1 -7 7 1 10 25 9 32 0 33 -1 10 -10z m50
-24 c-16 -8 -18 -14 -10 -22 11 -11 5 -33 -10 -33 -14 0 -9 49 5 61 8 6 11 16
7 23 -4 6 1 5 11 -3 16 -14 16 -15 -3 -26z m-650 2 c9 -7 13 -19 10 -29 -5
-14 -9 -12 -23 12 -18 32 -14 37 13 17z m276 -9 c-3 -8 -6 -5 -6 6 -1 11 2 17
5 13 3 -3 4 -12 1 -19z m143 -4 c0 -8 -5 -12 -10 -9 -6 4 -8 11 -5 16 9 14 15
11 15 -7z m295 -31 c-13 -15 -21 -33 -18 -42 4 -9 3 -13 -1 -10 -17 15 -14 49
6 63 13 9 17 19 12 28 -6 11 -5 11 9 0 15 -13 14 -16 -8 -39z m-395 22 c0 -8
4 -15 9 -15 6 0 9 -8 9 -17 0 -10 1 -25 3 -33 2 -8 -2 -14 -8 -12 -7 1 -13 -3
-13 -9 0 -7 -11 -22 -25 -35 -28 -26 -37 -66 -10 -44 13 11 14 10 7 -11 -5
-12 -14 -25 -19 -26 -13 -5 -27 63 -17 79 5 7 3 8 -5 3 -8 -4 -11 -18 -7 -36
3 -15 1 -31 -4 -34 -6 -3 -10 1 -10 10 0 9 -5 13 -10 10 -7 -4 -7 -13 0 -26
14 -26 -2 -24 -18 2 -11 18 -11 24 3 39 16 17 16 22 2 49 -17 34 -14 39 10 16
22 -23 38 -13 38 23 0 20 4 31 11 28 6 -2 11 3 10 11 0 9 4 18 11 20 13 5 15
-34 3 -52 -4 -5 -10 -18 -13 -27 -11 -31 17 -8 34 27 14 29 14 37 3 46 -16 13
-18 29 -4 29 6 0 10 -7 10 -15z m58 -10 c-3 -3 -9 2 -12 12 -6 14 -5 15 5 6 7
-7 10 -15 7 -18z m-151 -5 c-3 -11 -1 -20 5 -20 5 0 6 -5 2 -11 -4 -8 -9 -7
-15 2 -12 20 -11 49 2 49 6 0 9 -9 6 -20z m33 0 c0 -5 -2 -10 -4 -10 -3 0 -8
5 -11 10 -3 6 -1 10 4 10 6 0 11 -4 11 -10z m140 -17 c-1 -9 -30 -49 -31 -42
0 2 -2 14 -5 27 -3 17 1 22 16 22 11 0 20 -3 20 -7z m-310 -18 c0 -8 -4 -15
-8 -15 -5 0 -9 7 -9 15 0 8 4 15 9 15 4 0 8 -7 8 -15z m333 0 c-3 -9 -8 -14
-10 -11 -3 3 -2 9 2 15 9 16 15 13 8 -4z m332 5 c4 -6 -5 -10 -20 -10 -15 0
-24 4 -20 10 3 6 12 10 20 10 8 0 17 -4 20 -10z m-727 -12 c19 -19 14 -29 -8
-16 -20 13 -27 28 -12 28 4 0 13 -5 20 -12z m172 8 c0 -3 -4 -8 -10 -11 -5 -3
-10 -1 -10 4 0 6 5 11 10 11 6 0 10 -2 10 -4z m337 -18 c-3 -8 -6 -5 -6 6 -1
11 2 17 5 13 3 -3 4 -12 1 -19z m-294 -3 c-3 -9 -8 -14 -10 -11 -3 3 -2 9 2
15 9 16 15 13 8 -4z m409 -17 c-7 -7 -12 -8 -12 -2 0 14 12 26 19 19 2 -3 -1
-11 -7 -17z m148 13 c0 -5 -7 -14 -15 -21 -16 -14 -18 -10 -9 14 6 17 24 22
24 7z m-640 -41 c0 -5 -7 -10 -16 -10 -8 0 -12 5 -9 10 3 6 10 10 16 10 5 0 9
-4 9 -10z m485 0 c7 -12 -2 -12 -30 0 -19 8 -19 9 2 9 12 1 25 -3 28 -9z
m-572 -25 c-3 -11 2 -15 19 -15 25 0 48 -16 48 -34 0 -6 -5 -5 -12 2 -7 7 -21
12 -32 12 -19 0 -19 0 0 -21 13 -15 14 -20 4 -15 -8 3 -23 9 -32 12 -20 7 -24
24 -7 24 8 0 7 6 -2 17 -11 13 -11 17 -1 20 6 3 9 10 6 15 -4 7 -2 8 4 4 6 -4
9 -13 5 -21z m457 5 c0 -5 -5 -10 -11 -10 -5 0 -7 5 -4 10 3 6 8 10 11 10 2 0
4 -4 4 -10z m165 -20 c3 -5 1 -10 -4 -10 -6 0 -11 -7 -11 -16 0 -8 -4 -13 -9
-10 -5 3 -11 -1 -15 -9 -3 -8 -12 -15 -20 -15 -21 0 -9 27 15 33 11 3 19 9 18
14 -4 23 14 33 26 13z m-520 -10 c-3 -5 -12 -10 -18 -10 -7 0 -6 4 3 10 19 12
23 12 15 0z m437 -22 c-7 -7 -12 -8 -12 -2 0 14 12 26 19 19 2 -3 -1 -11 -7
-17z m-141 3 c5 9 9 10 9 2 0 -22 -22 -26 -38 -7 -16 17 -16 17 1 4 16 -12 20
-12 28 1z m-464 -34 c11 4 14 2 11 -8 -3 -8 -11 -13 -17 -11 -6 1 -14 -5 -17
-13 -8 -19 -34 -20 -34 0 0 8 7 15 15 15 9 0 15 10 16 23 1 16 3 17 6 5 3 -11
10 -15 20 -11z m72 -15 c-5 -2 -9 -11 -9 -19 0 -10 -6 -13 -16 -9 -9 3 -20 6
-25 6 -6 0 -7 5 -4 10 4 6 11 8 16 4 6 -3 13 3 16 14 4 17 8 18 18 9 7 -7 9
-13 4 -15z m461 17 c0 -7 13 -9 38 -5 36 6 36 6 12 -8 -22 -13 -28 -13 -47 0
-21 13 -23 13 -23 -3 0 -15 -2 -16 -10 -3 -6 9 -5 17 3 22 17 11 27 10 27 -3z
m-367 -20 c-4 -15 -9 -17 -17 -9 -8 8 -7 13 4 20 8 5 16 10 17 10 0 0 -1 -9
-4 -21z m152 -3 c11 -3 25 -5 30 -6 6 -1 0 -5 -13 -10 -23 -10 -38 -9 -35 0 1
3 -7 6 -18 6 -10 0 -19 -4 -19 -8 0 -4 4 -8 10 -8 5 0 15 -10 21 -22 12 -22
11 -22 -6 -8 -17 14 -18 13 -13 -13 3 -15 1 -30 -3 -33 -5 -3 -10 1 -11 8 -1
14 -5 30 -8 38 -1 3 -3 13 -5 23 -5 25 -17 35 -22 19 -3 -6 -9 -9 -15 -6 -6 4
-14 0 -19 -7 -4 -7 -11 -10 -14 -7 -11 11 5 28 25 28 10 0 21 4 24 9 5 8 42 6
91 -3z m-185 -27 c0 -5 -4 -9 -10 -9 -5 0 -10 7 -10 16 0 8 5 12 10 9 6 -3 10
-10 10 -16z m-170 -18 c0 -5 3 -17 6 -26 6 -14 3 -14 -31 2 -35 17 -36 18 -14
24 35 10 39 10 39 0z m57 -9 c-10 -10 -17 -24 -17 -30 0 -7 -4 -12 -8 -12 -14
0 -7 41 9 51 24 15 33 10 16 -9z m218 -19 c11 -20 19 -41 18 -45 -5 -16 8 -8
31 19 l23 26 0 -34 c0 -18 -8 -42 -18 -52 -17 -19 -18 -19 -12 2 3 11 1 21 -5
21 -6 0 -12 -8 -15 -17 -3 -13 -6 -9 -12 12 -10 38 -26 59 -35 46 -3 -6 -6 5
-7 24 -1 45 8 44 32 -2z m114 30 c0 -5 -4 -17 -9 -28 -8 -18 -9 -17 -9 8 -1
15 4 27 9 27 6 0 10 -3 9 -7z m169 -32 c-9 -15 -10 -24 -2 -29 6 -4 14 -20 18
-35 11 -45 -15 -28 -29 19 -9 28 -14 35 -19 23 -5 -11 -15 -14 -32 -11 -23 4
-24 6 -9 22 9 10 24 16 34 13 10 -3 25 2 32 10 19 21 23 13 7 -12z m-373 9
c-3 -5 -11 -10 -16 -10 -6 0 -7 5 -4 10 3 6 11 10 16 10 6 0 7 -4 4 -10z m-37
-28 c-3 -20 9 -42 24 -42 6 0 8 11 6 25 -3 14 -1 25 3 25 5 0 9 -4 9 -9 0 -5
7 -17 16 -25 8 -9 12 -21 8 -27 -4 -8 -9 -7 -15 2 -7 11 -11 11 -17 2 -8 -13
-52 -6 -52 8 0 5 -6 9 -14 9 -7 0 -16 9 -19 20 -3 13 0 20 10 20 8 0 11 -4 8
-10 -3 -5 -1 -10 4 -10 6 0 11 9 11 21 0 11 4 17 10 14 6 -4 10 -14 8 -23z
m75 8 c-3 -11 -7 -20 -9 -20 -2 0 -4 9 -4 20 0 11 4 20 9 20 5 0 7 -9 4 -20z
m-133 -29 c0 -16 -23 -26 -28 -12 -3 9 -7 9 -18 0 -14 -11 -20 1 -7 14 10 10
53 8 53 -2z m-80 -21 c-9 -16 -8 -18 5 -14 10 4 15 0 15 -15 0 -25 -6 -26 -26
-6 -12 11 -12 19 -4 35 6 11 13 20 16 20 2 0 0 -9 -6 -20z m434 -2 c9 -12 16
-29 15 -38 0 -9 -3 -10 -5 -3 -3 6 -16 9 -30 7 -21 -4 -24 -1 -24 26 0 36 22
40 44 8z m74 10 c17 -17 15 -31 -9 -46 -19 -12 -19 -11 -9 8 7 13 7 20 0 20
-5 0 -10 7 -10 15 0 18 12 19 28 3z m-413 -18 c3 -5 1 -10 -4 -10 -6 0 -11 5
-11 10 0 6 2 10 4 10 3 0 8 -4 11 -10z m144 -48 c1 -7 -3 -10 -9 -7 -5 3 -10
18 -9 33 0 24 1 25 9 7 5 -11 9 -26 9 -33z m18 26 c-3 -8 -6 -5 -6 6 -1 11 2
17 5 13 3 -3 4 -12 1 -19z m98 2 c-10 -11 -21 -17 -24 -14 -3 3 3 12 13 20 28
20 32 17 11 -6z m-65 -20 c0 -5 -2 -10 -4 -10 -3 0 -8 5 -11 10 -3 6 -1 10 4
10 6 0 11 -4 11 -10z m85 0 c3 -5 1 -10 -4 -10 -6 0 -11 5 -11 10 0 6 2 10 4
10 3 0 8 -4 11 -10z m-295 -9 c0 -5 -7 -11 -15 -15 -9 -3 -15 0 -15 9 0 8 7
15 15 15 8 0 15 -4 15 -9z m107 -14 c-6 -19 -24 -18 -29 1 -4 15 -1 18 14 14
10 -2 17 -9 15 -15z m-207 3 c8 -5 12 -12 9 -15 -8 -8 -39 5 -39 16 0 11 11
11 30 -1z m54 -40 c-7 -6 -24 22 -23 40 0 9 6 5 14 -10 7 -14 11 -27 9 -30z
m309 31 c-6 -3 -13 -13 -16 -21 -4 -11 -6 -9 -6 6 -1 24 8 36 21 27 7 -3 7 -8
1 -12z m-399 -27 c3 -8 2 -12 -4 -9 -6 3 -10 10 -10 16 0 14 7 11 14 -7z m296
7 c0 -5 -9 -7 -20 -4 -11 3 -20 7 -20 9 0 2 9 4 20 4 11 0 20 -4 20 -9z m30
-40 c0 -6 -4 -13 -10 -16 -5 -3 -10 1 -10 9 0 9 5 16 10 16 6 0 10 -4 10 -9z
m382 -349 c-7 -2 -12 -8 -12 -14 0 -6 7 -7 16 -4 14 6 15 4 4 -9 -7 -9 -16
-12 -19 -8 -4 4 -9 11 -13 14 -4 3 0 16 9 29 12 17 18 20 21 10 3 -8 0 -16 -6
-18z m-692 -22 c0 -5 -4 -10 -9 -10 -6 0 -13 5 -16 10 -3 6 1 10 9 10 9 0 16
-4 16 -10z m750 -63 c0 -5 -7 -2 -15 7 -8 8 -15 20 -15 27 0 14 29 -20 30 -34z
m-610 -37 c0 -5 -2 -10 -4 -10 -3 0 -8 5 -11 10 -3 6 -1 10 4 10 6 0 11 -4 11
-10z m55 -10 c3 -5 1 -10 -4 -10 -6 0 -11 5 -11 10 0 6 2 10 4 10 3 0 8 -4 11
-10z m-95 -45 c-7 -8 -17 -15 -22 -15 -11 0 14 29 26 30 5 0 3 -7 -4 -15z
m428 -10 c-3 -3 -9 2 -12 12 -6 14 -5 15 5 6 7 -7 10 -15 7 -18z m190 -31 c-4
-3 -12 5 -18 18 -12 22 -12 22 6 6 10 -10 15 -20 12 -24z m-498 6 c0 -5 -4
-10 -10 -10 -5 0 -10 5 -10 10 0 6 5 10 10 10 6 0 10 -4 10 -10z m33 -57 c-8
-23 -33 -60 -33 -50 0 11 29 67 35 67 2 0 2 -8 -2 -17z m357 -23 c0 -5 -5 -10
-11 -10 -5 0 -7 5 -4 10 3 6 8 10 11 10 2 0 4 -4 4 -10z m50 -16 c0 -8 -4 -14
-10 -14 -5 0 -10 9 -10 21 0 11 5 17 10 14 6 -3 10 -13 10 -21z m-399 -27
c-10 -9 -11 -8 -5 6 3 10 9 15 12 12 3 -3 0 -11 -7 -18z m374 -27 c1 -11 -2
-20 -7 -20 -4 0 -8 12 -8 27 0 30 13 24 15 -7z m-325 -1 c0 -4 -7 -6 -15 -3
-8 4 -15 10 -15 15 0 4 7 6 15 3 8 -4 15 -10 15 -15z m40 -86 c0 -7 -4 -13
-10 -13 -5 0 -10 7 -10 15 0 8 -4 15 -10 15 -5 0 -10 -6 -10 -14 0 -23 -19
-29 -35 -12 -8 8 -15 18 -15 22 0 5 5 3 12 -4 16 -16 31 -15 25 2 -3 7 0 19 6
25 13 13 47 -13 47 -36z m-5 -52 c3 -5 1 -12 -5 -16 -5 -3 -10 1 -10 9 0 18 6
21 15 7z m200 -11 c3 -5 2 -10 -4 -10 -5 0 -13 5 -16 10 -3 6 -2 10 4 10 5 0
13 -4 16 -10z m52 -12 c-3 -8 -6 -5 -6 6 -1 11 2 17 5 13 3 -3 4 -12 1 -19z
m-72 -8 c3 -5 1 -10 -4 -10 -6 0 -11 5 -11 10 0 6 2 10 4 10 3 0 8 -4 11 -10z
m118 -27 c9 -2 17 2 17 8 0 5 4 7 10 4 6 -4 5 -13 -3 -26 -11 -17 -13 -18 -23
-4 -9 13 -13 13 -17 3 -4 -10 -8 -10 -16 2 -15 20 -14 33 2 23 6 -4 20 -9 30
-10z m77 -12 c0 -3 -9 -12 -20 -19 -17 -10 -20 -10 -20 6 0 10 3 21 6 25 7 7
34 -2 34 -12z m97 -53 c-3 -8 -6 -5 -6 6 -1 11 2 17 5 13 3 -3 4 -12 1 -19z
m-278 -127 c19 -19 19 -55 0 -67 -5 -3 -9 -21 -9 -40 0 -21 -4 -33 -10 -29 -5
3 -10 35 -10 71 l0 65 -24 -18 c-31 -23 -50 -97 -43 -167 3 -28 3 -45 0 -38
-8 21 -23 3 -23 -29 0 -16 -4 -29 -10 -29 -5 0 -10 13 -10 29 0 16 -3 43 -6
60 -5 23 -3 31 7 31 8 0 15 10 15 23 3 38 15 121 20 136 2 7 12 11 23 8 10 -2
25 -1 32 4 20 13 27 11 48 -10z m116 -1 c3 -5 1 -10 -4 -10 -6 0 -11 5 -11 10
0 6 2 10 4 10 3 0 8 -4 11 -10z m-66 -7 c0 -5 -4 -17 -9 -28 -8 -18 -9 -17 -9
8 -1 15 4 27 9 27 6 0 10 -3 9 -7z m27 -30 c-11 -11 -19 6 -11 24 8 17 8 17
12 0 3 -10 2 -21 -1 -24z m-120 -40 c2 -16 1 -35 -3 -43 -7 -19 -23 47 -16 67
7 19 16 9 19 -24z m-145 -20 c-12 -20 -14 -14 -5 12 4 9 9 14 11 11 3 -2 0
-13 -6 -23z m-121 7 c0 -5 -2 -10 -4 -10 -3 0 -8 5 -11 10 -3 6 -1 10 4 10 6
0 11 -4 11 -10z m160 -41 c0 -6 -4 -7 -10 -4 -5 3 -10 11 -10 16 0 6 5 7 10 4
6 -3 10 -11 10 -16z m80 -9 c0 -5 -5 -10 -11 -10 -5 0 -7 5 -4 10 3 6 8 10 11
10 2 0 4 -4 4 -10z m54 -52 c-1 -13 -3 -40 -3 -61 -1 -23 -5 -36 -11 -32 -11
7 -13 48 -4 94 7 35 22 34 18 -1z m-167 -10 c-3 -7 -5 -2 -5 12 0 14 2 19 5
13 2 -7 2 -19 0 -25z m123 -56 c0 -10 6 -26 14 -37 18 -26 33 -135 17 -119 -7
6 -14 28 -18 48 -3 21 -17 49 -29 62 -30 29 -31 59 -4 61 13 1 20 -4 20 -15z
m-153 -44 c-3 -8 -6 -5 -6 6 -1 11 2 17 5 13 3 -3 4 -12 1 -19z m962 -333 l-1
-30 -14 33 c-16 37 -29 43 -19 10 6 -18 5 -20 -5 -11 -10 9 -9 19 1 50 l12 38
13 -30 c7 -16 13 -43 13 -60z m-62 53 c-3 -8 -6 -5 -6 6 -1 11 2 17 5 13 3 -3
4 -12 1 -19z m-1063 -88 c-10 -27 -21 -50 -26 -50 -4 0 -5 -7 -2 -15 4 -8 3
-27 0 -41 -5 -20 -11 -24 -28 -18 -17 5 -20 3 -15 -10 4 -9 3 -16 -1 -17 -42
-5 -52 -5 -52 -2 0 5 69 73 74 73 2 0 6 -6 9 -12 4 -13 2 9 -3 27 -4 13 50
128 57 121 3 -3 -3 -28 -13 -56z m537 -15 c-8 -46 -9 -47 -10 -13 -1 34 8 73
15 66 2 -2 -1 -26 -5 -53z m406 -17 c-3 -8 -6 -5 -6 6 -1 11 2 17 5 13 3 -3 4
-12 1 -19z m110 -25 c-3 -10 -5 -4 -5 12 0 17 2 24 5 18 2 -7 2 -21 0 -30z
m133 -33 c0 -14 -46 33 -54 55 -5 14 3 9 24 -13 16 -18 30 -37 30 -42z m-280
41 c0 -4 -7 -8 -15 -8 -8 0 -15 6 -15 13 0 8 6 11 15 8 8 -4 15 -9 15 -13z
m129 -86 c1 -29 -36 -30 -50 -2 l-12 22 22 -20 22 -19 -6 27 c-4 15 -4 35 0
44 7 16 9 15 15 -7 5 -14 8 -34 9 -45z m-1152 33 c-3 -8 -6 -5 -6 6 -1 11 2
17 5 13 3 -3 4 -12 1 -19z m1180 -10 c-3 -8 -6 -5 -6 6 -1 11 2 17 5 13 3 -3
4 -12 1 -19z m143 -8 c0 -5 -5 -10 -11 -10 -5 0 -7 5 -4 10 3 6 8 10 11 10 2
0 4 -4 4 -10z m-110 -64 c0 -5 -7 -1 -15 10 -8 10 -14 24 -14 29 0 6 6 1 14
-9 8 -11 15 -24 15 -30z m-977 28 c8 -8 -42 -54 -59 -54 -7 0 -16 5 -19 10 -3
6 0 10 8 10 7 0 22 9 33 19 21 22 27 24 37 15z m707 -26 c0 -6 -7 -5 -15 2 -8
7 -15 17 -15 22 0 6 7 5 15 -2 8 -7 15 -17 15 -22z m400 -11 c0 -6 14 -26 32
-44 31 -32 28 -46 -4 -20 -33 27 -67 100 -38 82 6 -3 10 -11 10 -18z m-393
-54 c-3 -10 -5 -2 -5 17 0 19 2 27 5 18 2 -10 2 -26 0 -35z m-871 8 c-4 -5 -1
-11 5 -13 6 -2 -9 -24 -34 -48 -26 -26 -48 -58 -52 -77 -3 -18 -11 -33 -16
-33 -10 0 -12 23 -2 33 3 4 14 29 22 55 9 26 22 46 29 44 7 -1 17 9 22 23 5
14 14 25 20 25 6 0 9 -4 6 -9z m64 -1 c-20 -13 -33 -13 -25 0 3 6 14 10 23 10
15 0 15 -2 2 -10z m1290 -75 c7 -9 8 -15 2 -15 -5 0 -12 7 -16 15 -3 8 -4 15
-2 15 2 0 9 -7 16 -15z m47 -57 c-3 -8 -6 -5 -6 6 -1 11 2 17 5 13 3 -3 4 -12
1 -19z"/>
<path d="M1115 1071 c-3 -5 -1 -12 5 -16 5 -3 10 1 10 9 0 18 -6 21 -15 7z"/>
<path d="M2435 3761 c-19 -8 -18 -9 5 -12 32 -5 44 -59 13 -59 -11 0 -14 -3
-7 -8 16 -10 28 -52 14 -52 -8 0 -7 -6 1 -21 14 -26 -5 -43 -32 -28 -21 11
-31 -1 -19 -20 5 -9 17 -11 36 -7 24 6 26 5 15 -8 -10 -12 -10 -16 -1 -16 6 0
10 -6 7 -12 -2 -7 3 -21 11 -31 11 -13 13 -20 5 -25 -6 -4 -10 -30 -8 -64 l2
-56 -36 5 c-20 3 -42 12 -48 21 -18 22 -16 1 2 -22 7 -10 18 -15 23 -12 6 3
28 -15 50 -40 l39 -46 1 28 c2 58 12 162 21 207 12 64 8 174 -7 189 -7 7 -12
20 -12 30 0 24 -29 68 -44 67 -6 0 -20 -4 -31 -8z"/>
<path d="M2060 3640 c-8 -5 -11 -12 -7 -16 4 -4 13 -2 19 4 15 15 7 24 -12 12z"/>
<path d="M1930 3615 c-7 -9 -11 -17 -8 -20 8 -8 62 11 66 23 6 18 -43 15 -58
-3z"/>
<path d="M2010 3619 c0 -5 5 -7 10 -4 6 3 10 8 10 11 0 2 -4 4 -10 4 -5 0 -10
-5 -10 -11z"/>
<path d="M1750 3599 c0 -5 5 -7 10 -4 6 3 10 8 10 11 0 2 -4 4 -10 4 -5 0 -10
-5 -10 -11z"/>
<path d="M1980 3590 c0 -5 7 -10 16 -10 8 0 12 5 9 10 -3 6 -10 10 -16 10 -5
0 -9 -4 -9 -10z"/>
<path d="M2146 3584 c-4 -10 -1 -14 6 -12 15 5 23 28 10 28 -5 0 -13 -7 -16
-16z"/>
<path d="M1580 3580 c0 -5 7 -7 15 -4 8 4 15 8 15 10 0 2 -7 4 -15 4 -8 0 -15
-4 -15 -10z"/>
<path d="M1870 3581 c0 -5 -9 -11 -20 -14 -30 -8 -24 -22 9 -23 32 -1 51 30
25 40 -8 3 -14 2 -14 -3z"/>
<path d="M1490 3570 c0 -13 11 -13 30 0 12 8 11 10 -7 10 -13 0 -23 -4 -23
-10z"/>
<path d="M1544 3564 c3 -8 6 -18 6 -20 0 -2 5 -4 10 -4 16 0 11 27 -6 34 -12
5 -15 2 -10 -10z"/>
<path d="M1970 3550 c0 -5 -10 -11 -22 -11 -17 -1 -18 -3 -6 -6 10 -2 28 3 40
11 18 13 19 16 5 16 -9 0 -17 -4 -17 -10z"/>
<path d="M1315 3540 c-7 -12 -7 -12 28 -14 16 -1 27 3 27 11 0 15 -46 18 -55
3z"/>
<path d="M1850 3510 c0 -5 5 -10 10 -10 6 0 10 5 10 10 0 6 -4 10 -10 10 -5 0
-10 -4 -10 -10z"/>
<path d="M1930 3496 c0 -9 30 -14 35 -6 4 6 -3 10 -14 10 -12 0 -21 -2 -21 -4z"/>
<path d="M1815 3444 c-9 -9 -14 -18 -12 -20 4 -5 67 25 67 32 0 11 -40 2 -55
-12z"/>
<path d="M2270 3441 c0 -5 -10 -12 -22 -14 -13 -2 -4 -5 20 -6 42 -1 56 11 26
23 -21 8 -24 8 -24 -3z"/>
<path d="M2280 3366 c0 -2 7 -6 15 -10 8 -3 15 -1 15 4 0 6 -7 10 -15 10 -8 0
-15 -2 -15 -4z"/>
<path d="M2277 3329 c7 -7 15 -10 18 -7 3 3 -2 9 -12 12 -14 6 -15 5 -6 -5z"/>
<path d="M2398 3288 c10 -13 10 -17 1 -20 -21 -7 -3 -32 41 -57 l43 -24 -7 29
c-7 28 -30 53 -71 76 -18 10 -18 9 -7 -4z"/>
<path d="M2220 3283 c0 -13 29 -38 35 -31 3 3 -4 13 -15 23 -11 10 -20 13 -20
8z"/>
<path d="M1870 3271 c0 -6 5 -13 10 -16 6 -3 10 1 10 9 0 9 -4 16 -10 16 -5 0
-10 -4 -10 -9z"/>
<path d="M2036 3255 c-3 -8 -1 -15 4 -15 6 0 10 7 10 15 0 8 -2 15 -4 15 -2 0
-6 -7 -10 -15z"/>
<path d="M2299 3237 c6 -8 21 -13 32 -10 24 7 22 8 -15 17 -25 6 -28 5 -17 -7z"/>
<path d="M691 3214 c0 -11 3 -14 6 -6 3 7 2 16 -1 19 -3 4 -6 -2 -5 -13z"/>
<path d="M2210 3180 c0 -5 5 -10 11 -10 5 0 7 5 4 10 -3 6 -8 10 -11 10 -2 0
-4 -4 -4 -10z"/>
<path d="M2310 3160 c0 -5 5 -10 10 -10 6 0 10 5 10 10 0 6 -4 10 -10 10 -5 0
-10 -4 -10 -10z"/>
<path d="M1806 3135 c-4 -14 -13 -25 -22 -25 -8 0 -18 -8 -21 -17 -4 -10 -13
-23 -21 -29 -13 -10 -13 -14 1 -34 15 -22 16 -22 28 19 7 23 20 46 30 51 9 5
19 21 21 35 7 32 -8 33 -16 0z m-46 -79 c0 -3 -4 -8 -10 -11 -5 -3 -10 -1 -10
4 0 6 5 11 10 11 6 0 10 -2 10 -4z"/>
<path d="M1605 3090 c-3 -5 -1 -10 4 -10 6 0 11 5 11 10 0 6 -2 10 -4 10 -3 0
-8 -4 -11 -10z"/>
<path d="M1801 3065 c-1 -22 16 -45 34 -45 7 0 7 3 0 8 -6 4 -16 18 -22 32
-10 22 -12 23 -12 5z"/>
<path d="M1606 3056 c6 -15 4 -17 -14 -11 -16 5 -22 2 -22 -9 0 -20 24 -21 40
-1 10 13 11 18 1 28 -10 9 -11 8 -5 -7z"/>
<path d="M1660 3060 c0 -5 5 -10 11 -10 5 0 7 5 4 10 -3 6 -8 10 -11 10 -2 0
-4 -4 -4 -10z"/>
<path d="M1705 3030 c3 -5 11 -10 16 -10 6 0 7 5 4 10 -3 6 -11 10 -16 10 -6
0 -7 -4 -4 -10z"/>
<path d="M2410 3032 c0 -8 9 -25 20 -39 11 -15 20 -20 20 -12 -1 18 -39 68
-40 51z"/>
<path d="M1540 3020 c0 -5 5 -10 10 -10 6 0 10 5 10 10 0 6 -4 10 -10 10 -5 0
-10 -4 -10 -10z"/>
<path d="M1632 3004 c-17 -19 -12 -47 6 -35 8 4 12 17 10 29 -3 17 -5 18 -16
6z"/>
<path d="M1780 3007 c0 -9 -9 -21 -20 -27 -11 -6 -20 -18 -20 -27 0 -13 3 -14
12 -5 13 13 29 16 27 5 -3 -20 2 -24 16 -13 10 8 13 21 9 39 -8 32 -24 52 -24
28z"/>
<path d="M1569 3003 c-10 -2 -19 -13 -22 -25 -3 -11 -10 -17 -15 -14 -5 3 -12
-13 -16 -36 -4 -23 -14 -47 -24 -54 -9 -7 -14 -15 -10 -19 8 -8 48 25 48 40 0
21 45 95 60 97 8 2 11 6 5 9 -5 3 -17 4 -26 2z"/>
<path d="M1685 3000 c-3 -5 -3 -10 1 -10 4 0 -1 -6 -12 -14 -10 -8 -19 -18
-19 -23 -2 -19 -18 -58 -28 -64 -5 -4 -7 -15 -3 -24 4 -12 10 -14 19 -8 6 5
26 10 42 11 29 3 29 2 10 -13 -18 -15 -18 -15 13 -9 28 6 32 4 32 -15 0 -11
-4 -21 -10 -21 -5 0 -10 -5 -10 -11 0 -5 5 -7 10 -4 6 3 10 1 10 -6 0 -8 3 -9
13 0 14 11 27 5 27 -12 0 -5 -6 -7 -13 -4 -7 3 -19 -4 -25 -14 -7 -10 -19 -19
-28 -19 -8 0 -13 4 -9 9 9 16 -11 21 -30 7 -21 -15 -11 -40 14 -31 13 5 13 4
4 -6 -10 -10 -7 -15 17 -26 41 -17 46 -16 42 9 -3 19 -3 19 19 4 13 -9 34 -16
46 -16 16 0 21 -4 17 -15 -4 -8 -1 -15 5 -15 6 0 11 -4 11 -8 0 -5 -10 -8 -22
-8 -17 1 -22 -4 -20 -18 3 -14 -1 -17 -14 -12 -17 6 -16 5 1 -14 21 -23 23
-24 22 -7 -1 41 3 50 18 37 13 -11 13 -15 3 -22 -10 -6 -9 -12 6 -23 11 -8 25
-15 30 -15 6 0 3 7 -6 14 -10 7 -18 15 -18 18 0 12 38 47 44 41 3 -3 6 0 6 8
0 16 -19 39 -33 39 -4 0 -5 -4 -2 -10 3 -5 2 -10 -3 -10 -6 0 -13 11 -16 24
-4 18 -11 23 -33 20 -26 -3 -63 19 -63 38 0 15 26 8 48 -12 21 -20 21 -20 31
-1 9 15 7 20 -10 24 -12 3 -18 10 -14 16 3 6 1 11 -4 11 -6 0 -11 5 -11 10 0
6 7 10 15 10 8 0 15 4 15 9 0 5 -7 11 -15 15 -9 3 -15 0 -15 -9 0 -19 -14 -19
-30 0 -10 13 -9 15 11 16 13 1 28 1 33 0 5 -1 6 5 3 13 -5 11 0 15 15 13 28
-3 37 32 14 49 -15 10 -15 12 -1 18 8 3 15 10 15 16 0 8 -6 8 -20 0 -12 -6
-20 -21 -20 -36 0 -14 4 -22 10 -19 6 3 10 2 10 -4 0 -6 -14 -9 -30 -7 -17 2
-33 0 -36 -5 -3 -5 -13 -9 -23 -9 -14 0 -17 6 -15 28 2 15 1 19 -2 10 -3 -10
-14 -18 -25 -18 -23 0 -23 0 -4 36 8 16 15 39 15 51 0 24 -15 39 -25 23z m57
-277 c-6 -3 -9 -10 -6 -16 4 -7 1 -7 -7 1 -12 11 -12 14 1 22 8 5 17 6 20 3 3
-3 -1 -8 -8 -10z"/>
<path d="M1726 2995 c-9 -26 -7 -32 5 -12 6 10 9 21 6 23 -2 3 -7 -2 -11 -11z"/>
<path d="M2445 2950 c-3 -5 -2 -10 4 -10 5 0 13 5 16 10 3 6 2 10 -4 10 -5 0
-13 -4 -16 -10z"/>
<path d="M1623 2943 c-7 -3 -13 -12 -13 -21 0 -15 2 -15 17 1 18 18 16 27 -4
20z"/>
<path d="M1570 2916 c0 -18 -11 -37 -31 -56 -30 -27 -30 -28 -10 -35 12 -3 21
-14 22 -23 0 -18 17 18 22 47 2 9 8 25 14 36 9 16 8 25 -3 40 -13 18 -14 17
-14 -9z m-12 -91 c-3 -3 -9 2 -12 12 -6 14 -5 15 5 6 7 -7 10 -15 7 -18z"/>
<path d="M1744 2914 c3 -9 6 -18 6 -20 0 -3 4 -3 10 1 11 7 2 35 -12 35 -6 0
-7 -7 -4 -16z"/>
<path d="M2270 2905 c0 -11 33 -65 40 -65 16 0 22 20 11 34 -6 7 -8 15 -5 18
2 3 -7 8 -21 10 -14 3 -25 4 -25 3z"/>
<path d="M2498 2903 c7 -3 16 -2 19 1 4 3 -2 6 -13 5 -11 0 -14 -3 -6 -6z"/>
<path d="M2410 2890 c0 -5 5 -10 11 -10 5 0 7 5 4 10 -3 6 -8 10 -11 10 -2 0
-4 -4 -4 -10z"/>
<path d="M2363 2865 c-4 -11 0 -22 10 -30 10 -7 17 -17 17 -22 0 -5 12 -15 26
-21 14 -7 22 -17 19 -22 -3 -6 1 -10 10 -10 9 0 14 -4 11 -8 -3 -5 4 -21 16
-38 20 -29 21 -16 2 30 -5 13 -4 17 4 12 7 -4 9 2 6 20 -6 32 -34 76 -34 54 0
-13 -2 -13 -10 0 -9 13 -11 13 -20 0 -9 -13 -10 -12 -8 4 2 10 -7 25 -19 33
-21 14 -23 14 -30 -2z"/>
<path d="M1600 2861 c0 -5 7 -16 15 -25 8 -8 15 -27 15 -43 0 -20 3 -24 9 -14
5 8 16 11 25 8 15 -6 15 -4 1 17 -9 13 -14 29 -12 37 2 8 2 11 0 7 -7 -12 -20
-9 -37 8 -9 8 -16 11 -16 5z"/>
<path d="M1837 2818 c2 -18 5 -44 6 -58 2 -25 31 -63 41 -53 3 3 13 -2 22 -11
9 -9 19 -15 22 -12 3 3 -7 18 -21 32 -15 15 -27 32 -27 38 0 6 7 3 14 -7 8
-10 20 -16 27 -15 9 2 13 -4 11 -16 -3 -14 1 -17 12 -13 9 4 16 2 16 -2 0 -11
-31 -25 -49 -22 -7 1 -10 -2 -6 -8 3 -6 11 -11 16 -11 12 0 39 -25 39 -36 0
-4 -9 1 -19 10 -11 10 -25 15 -30 11 -15 -9 -14 -26 2 -24 25 3 37 -2 81 -36
25 -19 46 -32 46 -28 0 4 16 -8 35 -27 19 -19 35 -30 35 -25 0 4 -24 30 -52
57 -43 39 -48 47 -26 39 15 -6 36 -8 45 -5 14 5 15 4 4 -4 -11 -8 -7 -17 23
-46 39 -40 41 -40 26 -2 -5 14 -17 26 -26 26 -11 0 -14 5 -10 16 3 9 6 22 6
30 0 9 5 12 12 8 7 -4 8 -3 4 4 -5 9 -14 8 -35 -2 -26 -14 -29 -13 -56 17 -16
19 -28 44 -28 60 0 19 -5 26 -13 23 -7 -3 -15 3 -19 12 -8 26 -64 86 -73 77
-4 -4 3 -14 16 -22 12 -9 22 -20 22 -25 0 -5 -12 0 -26 11 -15 12 -33 21 -41
21 -8 0 -13 6 -12 13 3 22 -1 37 -9 37 -5 0 -7 -15 -5 -32z m144 -160 c11 -21
11 -22 -4 -9 -10 7 -17 17 -17 22 0 15 9 10 21 -13z"/>
<path d="M2155 2840 c-18 -8 -17 -9 8 -9 16 -1 26 3 22 9 -3 6 -7 10 -8 9 -1
0 -11 -4 -22 -9z"/>
<path d="M2535 2840 c3 -5 10 -10 16 -10 5 0 9 5 9 10 0 6 -7 10 -16 10 -8 0
-12 -4 -9 -10z"/>
<path d="M2474 2833 c11 -11 46 -14 46 -3 0 6 -12 10 -27 10 -14 0 -23 -3 -19
-7z"/>
<path d="M2035 2807 c7 -17 47 -27 76 -20 30 8 11 24 -23 18 -16 -3 -37 0 -44
6 -12 9 -13 9 -9 -4z"/>
<path d="M2236 2805 c4 -8 11 -15 16 -15 6 0 5 6 -2 15 -7 8 -14 15 -16 15 -2
0 -1 -7 2 -15z"/>
<path d="M2329 2807 c6 -8 21 -13 32 -10 24 7 22 8 -15 17 -25 6 -28 5 -17 -7z"/>
<path d="M2508 2803 c6 -2 12 -13 12 -23 0 -10 5 -22 10 -25 6 -3 10 -15 10
-26 0 -10 5 -19 10 -19 15 0 12 25 -7 65 -9 19 -24 35 -32 34 -11 0 -12 -2 -3
-6z"/>
<path d="M2136 2785 c-3 -9 0 -15 8 -15 8 0 23 -3 33 -7 17 -6 17 -5 -1 15
-22 26 -32 27 -40 7z"/>
<path d="M1575 2780 c-3 -5 -1 -10 4 -10 6 0 11 5 11 10 0 6 -2 10 -4 10 -3 0
-8 -4 -11 -10z"/>
<path d="M1715 2770 c3 -5 10 -10 16 -10 5 0 9 5 9 10 0 6 -7 10 -16 10 -8 0
-12 -4 -9 -10z"/>
<path d="M2100 2774 c0 -6 28 -35 32 -34 13 5 58 -23 58 -35 0 -19 16 -20 24
0 3 8 13 15 23 15 15 0 16 2 3 10 -8 5 -12 12 -8 15 11 11 59 -27 54 -41 -4
-9 2 -14 17 -14 18 0 19 2 7 10 -13 9 -13 11 0 21 13 9 13 10 -1 6 -9 -3 -26
3 -38 14 -24 23 -71 35 -71 19 0 -5 5 -10 10 -10 6 0 10 -7 10 -15 0 -8 -2
-15 -5 -15 -10 0 -90 45 -93 52 -4 9 -22 11 -22 2z"/>
<path d="M2635 2760 c3 -5 8 -10 11 -10 2 0 4 5 4 10 0 6 -5 10 -11 10 -5 0
-7 -4 -4 -10z"/>
<path d="M2298 2753 c7 -3 16 -2 19 1 4 3 -2 6 -13 5 -11 0 -14 -3 -6 -6z"/>
<path d="M2348 2750 c28 -12 29 -24 1 -15 -34 11 -18 -17 19 -32 l31 -13 -14
33 c-9 21 -21 33 -37 34 l-23 3 23 -10z"/>
<path d="M1527 2743 c-4 -3 -7 -11 -7 -17 0 -6 5 -5 12 2 6 6 9 14 7 17 -3 3
-9 2 -12 -2z"/>
<path d="M1615 2741 c-3 -6 4 -9 15 -8 11 1 20 5 20 9 0 11 -28 10 -35 -1z"/>
<path d="M2000 2741 c0 -6 4 -12 9 -15 5 -3 7 -15 4 -27 -4 -14 2 -28 21 -45
25 -24 26 -24 26 -4 0 11 -7 23 -15 26 -8 4 -15 14 -15 24 0 25 -10 50 -21 50
-5 0 -9 -4 -9 -9z"/>
<path d="M2060 2733 c0 -13 5 -23 10 -23 16 0 12 -18 -5 -22 -11 -2 -10 -8 6
-28 l20 -25 -3 25 c-1 14 1 30 4 35 4 6 -2 22 -13 35 l-19 25 0 -22z"/>
<path d="M2507 2700 c9 -22 22 -40 29 -40 7 0 18 -8 23 -17 10 -17 10 -17 11
-1 0 9 -8 23 -17 30 -10 7 -24 25 -32 41 -22 41 -31 32 -14 -13z"/>
<path d="M2650 2721 c0 -25 6 -27 13 -6 4 8 2 17 -3 20 -6 4 -10 -3 -10 -14z"/>
<path d="M1547 2723 c-6 -10 19 -34 26 -26 8 7 -3 33 -13 33 -5 0 -11 -3 -13
-7z"/>
<path d="M1580 2721 c0 -6 7 -11 15 -11 22 0 18 -21 -5 -27 -11 -3 -17 -9 -14
-14 9 -16 19 -10 37 21 10 17 14 30 8 30 -5 0 -16 3 -25 6 -9 3 -16 1 -16 -5z"/>
<path d="M2400 2722 c0 -5 9 -17 20 -27 18 -16 20 -16 20 -2 0 9 -9 21 -20 27
-11 6 -20 7 -20 2z"/>
<path d="M1652 2703 c-10 -4 -10 -8 -1 -19 8 -10 8 -14 0 -14 -6 0 -11 -4 -11
-10 0 -21 20 -9 26 15 7 29 5 34 -14 28z"/>
<path d="M2240 2685 c33 -19 50 -18 26 0 -11 8 -27 15 -35 15 -10 -1 -7 -6 9
-15z"/>
<path d="M2367 2684 c-8 -9 39 -54 57 -54 9 0 16 7 16 15 0 24 16 17 30 -12
11 -23 14 -25 18 -10 6 26 -17 49 -47 46 -14 -2 -36 2 -47 9 -12 6 -24 9 -27
6z"/>
<path d="M2184 2665 c11 -8 25 -15 32 -15 6 0 17 -7 24 -15 7 -8 17 -15 22
-15 6 0 5 7 -2 15 -11 13 -10 14 6 9 13 -5 16 -4 9 3 -12 12 -72 33 -94 33
-13 -1 -13 -3 3 -15z"/>
<path d="M2490 2667 c0 -8 4 -19 10 -22 5 -3 13 -20 18 -37 5 -21 15 -32 30
-35 12 -1 22 2 22 7 0 6 -5 10 -10 10 -6 0 -16 12 -23 28 -6 15 -20 36 -29 46
-15 17 -18 17 -18 3z"/>
<path d="M2600 2671 c0 -12 53 -71 64 -71 3 0 6 9 6 20 0 11 -5 17 -13 15 -6
-3 -17 5 -22 17 -11 23 -35 37 -35 19z"/>
<path d="M1725 2650 c27 -12 43 -12 25 0 -8 5 -22 9 -30 9 -10 0 -8 -3 5 -9z"/>
<path d="M2290 2653 c0 -9 16 -25 63 -62 16 -13 17 -12 9 10 -9 24 -72 69 -72
52z"/>
<path d="M2180 2632 c0 -19 30 -27 43 -12 9 10 9 12 -4 7 -9 -3 -22 0 -28 6
-8 8 -11 8 -11 -1z"/>
<path d="M1720 2620 c0 -5 5 -10 11 -10 5 0 7 5 4 10 -3 6 -8 10 -11 10 -2 0
-4 -4 -4 -10z"/>
<path d="M1650 2600 c0 -5 -9 -10 -20 -10 -29 0 -25 -15 5 -18 14 -1 25 3 25
9 0 7 12 9 30 7 32 -5 41 6 14 16 -24 9 -54 7 -54 -4z"/>
<path d="M1895 2590 c10 -11 26 -20 36 -20 11 0 32 -13 47 -30 32 -33 42 -37
42 -17 0 15 -45 59 -77 76 -19 10 -22 9 -17 -4 4 -8 1 -15 -5 -15 -7 0 -14 7
-17 15 -4 8 -11 15 -17 15 -5 0 -2 -9 8 -20z"/>
<path d="M2117 2596 c-4 -10 -1 -13 8 -9 8 3 12 9 9 14 -7 12 -11 11 -17 -5z"/>
<path d="M2232 2605 c10 -28 32 -65 40 -65 14 0 9 14 -18 45 -14 17 -24 26
-22 20z"/>
<path d="M2290 2602 c0 -6 6 -15 13 -19 7 -4 18 -20 24 -35 7 -16 17 -28 23
-28 6 0 3 13 -7 31 -21 36 -53 67 -53 51z"/>
<path d="M2435 2570 c4 -14 14 -34 22 -45 13 -19 14 -18 7 10 -3 17 -13 37
-21 45 -13 13 -14 12 -8 -10z"/>
<path d="M1399 2554 c-11 -14 -11 -18 4 -29 12 -8 14 -15 8 -20 -6 -3 -11 0
-12 7 0 7 -5 2 -10 -11 -13 -33 -3 -38 24 -13 13 12 25 20 28 18 2 -2 5 11 6
30 1 27 -2 34 -16 34 -10 0 -25 -7 -32 -16z"/>
<path d="M1657 2554 c-15 -8 -33 -12 -39 -8 -7 4 -8 3 -4 -4 5 -8 -1 -12 -15
-12 -17 0 -20 -3 -12 -11 12 -12 53 -3 53 12 0 5 6 9 13 9 6 0 21 7 31 15 25
19 9 19 -27 -1z"/>
<path d="M2537 2563 c-4 -6 0 -25 9 -42 19 -38 26 -40 14 -3 -5 15 -10 34 -12
42 -3 9 -7 10 -11 3z"/>
<path d="M1463 2545 c-10 -10 -7 -19 12 -40 23 -24 25 -25 25 -6 0 12 5 21 12
21 6 0 8 3 5 6 -4 4 -13 2 -20 -4 -17 -15 -30 -3 -16 14 14 17 -3 25 -18 9z"/>
<path d="M1810 2553 c0 -9 26 -43 34 -43 1 0 2 9 2 19 0 11 -4 17 -9 14 -5 -3
-13 1 -18 8 -6 9 -9 10 -9 2z"/>
<path d="M1888 2544 c15 -29 92 -104 106 -104 6 0 -3 13 -19 28 -17 15 -46 43
-64 62 -19 19 -29 26 -23 14z"/>
<path d="M2167 2544 c6 -15 23 -19 23 -5 0 5 -7 11 -14 14 -10 4 -13 1 -9 -9z"/>
<path d="M2575 2543 c4 -10 10 -30 13 -45 7 -46 -17 -35 -70 30 -10 12 -23 22
-29 22 -8 0 -6 -7 4 -18 10 -10 17 -25 17 -33 0 -12 -2 -12 -10 1 -15 24 -20
6 -8 -28 13 -35 33 -45 23 -12 -8 25 13 27 22 3 9 -23 44 -63 56 -63 5 0 6 15
2 33 -6 30 -5 31 9 13 15 -18 16 -18 22 -2 4 10 3 21 -3 25 -5 3 -15 25 -21
49 -7 23 -18 42 -23 42 -7 0 -8 -7 -4 -17z"/>
<path d="M1745 2529 c4 -6 -2 -13 -14 -16 -22 -5 -29 -23 -10 -23 16 0 49 20
49 29 0 5 -7 12 -16 15 -9 3 -12 2 -9 -5z"/>
<path d="M2371 2513 c-11 -13 -11 -17 4 -31 16 -16 17 -15 10 8 -4 17 -3 21 3
11 6 -8 15 -10 23 -6 9 6 10 3 5 -11 -4 -10 -4 -15 0 -11 4 4 18 -15 31 -43
13 -28 27 -49 32 -45 5 3 11 0 13 -6 5 -16 38 1 38 20 0 13 -2 13 -9 2 -7 -10
-14 -1 -30 33 -12 29 -25 45 -31 41 -7 -4 -14 2 -17 14 -3 14 -13 21 -28 21
-13 0 -25 4 -27 9 -1 5 -9 2 -17 -6z"/>
<path d="M2156 2503 c-6 -14 -5 -15 5 -6 7 7 10 15 7 18 -3 3 -9 -2 -12 -12z"/>
<path d="M1625 2501 c-6 -11 9 -23 19 -14 9 9 7 23 -3 23 -6 0 -12 -4 -16 -9z"/>
<path d="M2201 2505 c0 -14 46 -65 59 -65 5 0 10 5 10 10 0 6 -5 10 -10 10 -6
0 -22 12 -35 28 -13 15 -24 23 -24 17z"/>
<path d="M2290 2492 c0 -4 9 -13 20 -20 19 -12 20 -11 8 8 -13 20 -28 27 -28
12z"/>
<path d="M1526 2477 c-17 -13 -18 -14 -2 -20 10 -4 14 -3 11 2 -3 6 3 14 12
20 10 6 13 11 7 11 -5 0 -18 -6 -28 -13z"/>
<path d="M1818 2461 c36 -38 51 -39 21 -2 -10 13 -19 20 -19 16 0 -4 -8 -1
-17 6 -10 7 -3 -2 15 -20z"/>
<path d="M1916 2465 c9 -14 21 -25 26 -25 5 0 2 7 -6 16 -9 8 -16 20 -16 25 0
5 -5 9 -10 9 -6 0 -3 -11 6 -25z"/>
<path d="M2090 2486 c0 -2 7 -9 15 -16 9 -7 15 -8 15 -2 0 5 -7 12 -15 16 -8
3 -15 4 -15 2z"/>
<path d="M2680 2481 c0 -5 7 -14 15 -21 16 -14 18 -10 9 14 -6 17 -24 22 -24
7z"/>
<path d="M1675 2470 c28 -12 37 -12 30 0 -3 6 -16 10 -28 9 -21 0 -21 -1 -2
-9z"/>
<path d="M1775 2460 c10 -11 20 -20 22 -20 2 0 -2 9 -9 20 -7 11 -17 20 -22
20 -5 0 -1 -9 9 -20z"/>
<path d="M2160 2465 c0 -8 4 -15 10 -15 5 0 7 7 4 15 -4 8 -8 15 -10 15 -2 0
-4 -7 -4 -15z"/>
<path d="M1420 2455 c7 -9 15 -13 17 -11 7 7 -7 26 -19 26 -6 0 -6 -6 2 -15z"/>
<path d="M1457 2450 c-5 -18 -11 -21 -30 -16 -18 4 -27 1 -31 -11 -9 -24 -1
-26 38 -13 42 14 50 24 38 46 -8 14 -10 13 -15 -6z"/>
<path d="M1610 2460 c0 -5 6 -10 14 -10 8 0 18 5 21 10 3 6 -3 10 -14 10 -12
0 -21 -4 -21 -10z"/>
<path d="M2360 2450 c0 -5 5 -10 11 -10 5 0 7 5 4 10 -3 6 -8 10 -11 10 -2 0
-4 -4 -4 -10z"/>
<path d="M2050 2446 c0 -2 7 -12 16 -20 17 -18 39 -22 29 -6 -7 11 -45 33 -45
26z"/>
<path d="M2107 2428 c9 -10 17 -18 17 -18 1 0 2 8 2 18 0 10 -8 18 -18 18 -16
0 -16 -2 -1 -18z"/>
<path d="M1587 2424 c6 -16 19 -18 27 -5 3 5 -3 11 -13 14 -14 3 -18 1 -14 -9z"/>
<path d="M2215 2430 c3 -5 11 -10 16 -10 6 0 7 5 4 10 -3 6 -11 10 -16 10 -6
0 -7 -4 -4 -10z"/>
<path d="M2296 2433 c-3 -4 10 -22 30 -41 20 -18 38 -31 41 -28 4 3 -10 21
-29 40 -20 19 -39 32 -42 29z"/>
<path d="M2390 2431 c0 -5 5 -13 10 -16 6 -3 10 -2 10 4 0 5 -4 13 -10 16 -5
3 -10 2 -10 -4z"/>
<path d="M1540 2410 c0 -5 5 -12 12 -16 16 -10 87 -11 81 -1 -13 21 72 -24 93
-50 10 -11 12 -10 17 7 3 11 1 18 -4 14 -10 -6 -69 26 -69 37 0 12 -38 17 -48
7 -6 -6 -23 -6 -46 0 -20 6 -36 7 -36 2z"/>
<path d="M2015 2410 c3 -5 11 -10 16 -10 6 0 7 5 4 10 -3 6 -11 10 -16 10 -6
0 -7 -4 -4 -10z"/>
<path d="M2254 2404 c1 -8 8 -19 16 -24 7 -5 11 -17 7 -30 -4 -16 -2 -20 9
-16 12 5 12 2 3 -17 -6 -12 -13 -24 -16 -26 -2 -3 -17 11 -33 30 l-29 34 5
-35 c5 -32 4 -33 -9 -17 -8 9 -17 17 -20 17 -4 0 -4 -8 0 -17 3 -10 -11 1 -32
25 -21 23 -45 42 -52 42 -9 0 -1 -14 19 -33 18 -19 41 -45 50 -58 15 -20 19
-22 28 -9 9 14 15 7 11 -14 -1 -5 6 -18 16 -29 14 -16 14 -19 3 -15 -16 6 -43
-16 -33 -26 10 -10 25 -7 18 4 -3 6 1 10 10 10 9 0 14 -4 11 -9 -3 -5 6 -14
22 -20 38 -14 72 -46 72 -66 0 -14 3 -15 14 -6 11 9 15 9 19 -1 3 -7 6 -8 6
-2 1 6 -21 28 -49 50 -27 22 -47 45 -45 52 3 9 -1 11 -14 7 -15 -5 -18 -2 -14
13 2 11 0 23 -6 26 -6 4 -11 15 -11 24 1 14 2 14 12 -3 13 -25 49 -54 66 -55
6 0 12 10 12 22 0 20 4 18 40 -17 22 -21 40 -35 40 -30 0 4 9 0 20 -10 28 -25
25 -6 -5 35 -13 18 -22 37 -19 41 3 5 -1 9 -8 9 -8 1 -5 7 7 17 16 12 17 14 3
10 -11 -4 -21 1 -28 13 -15 28 -11 38 7 15 14 -18 15 -18 9 -2 -3 10 -6 23 -6
28 0 6 -5 7 -11 4 -6 -4 -17 1 -24 11 -14 18 -14 18 -15 -1 0 -17 -4 -15 -30
13 -16 18 -30 37 -30 43 0 5 -4 9 -9 9 -5 0 -8 -7 -7 -16z m60 -121 c-10 -41
-14 -45 -30 -29 -17 18 -18 27 -1 24 6 -2 11 5 9 15 -2 10 3 17 13 17 12 0 14
-6 9 -27z m40 -19 c9 -24 7 -28 -9 -14 -17 14 -20 30 -6 30 5 0 12 -7 15 -16z"/>
<path d="M1314 2393 c-23 -21 -29 -44 -10 -37 7 3 19 -2 26 -11 16 -19 26 -19
34 1 4 12 2 15 -9 11 -8 -4 -17 -2 -20 4 -4 5 0 12 9 15 8 3 12 12 9 20 -7 18
-16 18 -39 -3z"/>
<path d="M1700 2406 c0 -2 7 -7 16 -10 8 -3 12 -2 9 4 -6 10 -25 14 -25 6z"/>
<path d="M1893 2398 c4 -10 2 -18 -5 -18 -7 0 -6 -5 2 -15 15 -18 34 -20 23
-2 -4 6 -8 18 -9 25 -2 8 -6 17 -10 20 -4 4 -4 -1 -1 -10z"/>
<path d="M2371 2400 c-1 -30 39 -102 59 -107 14 -4 22 -17 26 -42 6 -38 30
-79 40 -69 3 4 1 15 -5 26 -16 31 -14 45 7 37 13 -5 14 -3 5 6 -6 6 -9 18 -6
25 3 8 -1 14 -10 14 -14 0 -32 26 -29 43 1 4 -3 7 -9 7 -6 0 -8 8 -5 18 3 9 1
24 -5 32 -9 12 -10 11 -6 -7 4 -17 0 -21 -14 -20 -12 1 -17 7 -14 15 2 7 1 10
-4 7 -6 -3 -14 3 -20 12 -8 14 -10 15 -10 3z m57 -75 c-3 -3 -9 2 -12 12 -6
14 -5 15 5 6 7 -7 10 -15 7 -18z"/>
<path d="M1740 2396 c0 -2 7 -6 15 -10 8 -3 15 -1 15 4 0 6 -7 10 -15 10 -8 0
-15 -2 -15 -4z"/>
<path d="M2000 2390 c0 -5 20 -23 45 -40 25 -17 45 -33 45 -36 0 -3 -4 -2 -10
1 -5 3 -10 2 -10 -3 0 -5 14 -9 30 -9 l30 0 -22 24 c-26 28 -108 75 -108 63z"/>
<path d="M2781 2384 c0 -11 3 -14 6 -6 3 7 2 16 -1 19 -3 4 -6 -2 -5 -13z"/>
<path d="M1393 2382 c-8 -5 -1 -16 22 -35 19 -15 35 -23 35 -18 0 5 -5 13 -11
16 -6 4 -8 13 -5 20 2 7 -2 16 -10 19 -19 7 -16 7 -31 -2z"/>
<path d="M2130 2384 c0 -20 51 -47 63 -35 8 8 6 15 -9 26 -24 18 -34 19 -34 3
0 -9 -4 -8 -10 2 -5 8 -10 10 -10 4z"/>
<path d="M1934 2355 c6 -13 16 -20 23 -18 10 4 11 9 3 18 -8 9 -7 14 2 18 7 2
1 4 -13 4 -23 0 -25 -2 -15 -22z"/>
<path d="M2690 2369 c0 -9 7 -22 15 -29 19 -16 19 0 0 26 -12 16 -14 16 -15 3z"/>
<path d="M2740 2370 c0 -5 5 -10 10 -10 6 0 10 5 10 10 0 6 -4 10 -10 10 -5 0
-10 -4 -10 -10z"/>
<path d="M2470 2361 c0 -6 4 -13 10 -16 6 -3 7 1 4 9 -7 18 -14 21 -14 7z"/>
<path d="M2587 2340 c3 -19 1 -30 -6 -30 -6 0 -11 -5 -11 -11 0 -6 7 -9 15 -5
8 3 15 0 15 -7 1 -15 60 -81 67 -74 3 3 -6 21 -20 39 -14 18 -31 52 -38 76
-14 48 -32 58 -22 12z"/>
<path d="M1536 2339 c13 -14 20 -16 30 -8 8 6 21 9 29 5 8 -3 15 -1 15 4 0 6
-3 10 -7 11 -88 7 -84 7 -67 -12z"/>
<path d="M1633 2353 c4 -3 3 -11 -3 -18 -6 -8 0 -17 21 -29 16 -9 27 -22 23
-27 -3 -6 -15 -4 -30 5 -28 19 -43 21 -26 4 7 -7 12 -16 12 -22 0 -6 -5 -5
-12 2 -17 17 -38 15 -38 -3 0 -11 -12 -15 -45 -15 -27 0 -45 -5 -45 -11 0 -7
11 -9 28 -6 21 4 34 -1 56 -24 16 -16 33 -29 37 -29 3 0 15 -12 25 -27 13 -21
13 -25 2 -16 -12 11 -18 9 -34 -9 -18 -20 -18 -21 -1 -15 19 7 51 -6 75 -30
18 -17 37 -6 22 13 -7 7 -15 13 -18 12 -22 -2 -29 5 -29 27 0 14 1 25 2 25 2
0 17 -13 35 -30 33 -31 62 -42 40 -15 -18 22 3 18 27 -4 18 -17 22 -18 35 -4
14 13 16 11 21 -16 4 -16 16 -35 28 -42 l22 -11 -23 38 c-13 22 -29 46 -37 55
-7 8 -13 22 -13 30 0 8 -6 21 -12 29 -7 8 -3 6 10 -4 12 -11 22 -15 22 -11 0
5 5 4 12 -3 20 -20 32 -13 13 8 -29 32 8 26 40 -6 14 -14 42 -31 63 -38 20 -8
36 -19 34 -25 -3 -14 8 -14 28 0 11 8 12 12 2 16 -6 2 -10 9 -7 14 5 7 57 -10
95 -32 8 -5 26 -15 40 -21 14 -7 32 -19 40 -27 12 -12 15 -11 24 8 11 25 19
26 36 6 7 -8 17 -15 22 -15 12 0 -40 49 -71 68 -28 16 -27 -1 2 -21 19 -14 20
-16 4 -16 -10 -1 -25 6 -33 14 -8 8 -20 12 -28 9 -7 -3 -19 2 -26 10 -7 9 -16
13 -21 10 -5 -3 -22 5 -37 17 -24 19 -25 21 -5 17 27 -7 20 18 -8 27 -11 4
-33 21 -49 38 -16 17 -32 28 -36 24 -4 -3 4 -15 16 -25 30 -25 18 -46 -22 -38
-18 3 -27 2 -23 -4 3 -6 1 -10 -4 -10 -6 0 -11 6 -11 13 0 19 -57 60 -63 44
-2 -6 -8 -9 -12 -5 -4 4 -1 13 7 21 12 13 18 13 39 1 28 -15 63 -18 54 -4 -3
5 -13 6 -23 3 -14 -6 -15 -4 -5 8 10 12 10 18 1 27 -9 9 -9 12 2 13 25 1 -22
18 -52 18 -16 1 -28 -4 -28 -10 0 -12 -40 -8 -74 6 -15 7 -18 5 -14 -7 7 -18
-16 -21 -54 -6 -27 10 -32 19 -29 46 1 6 -4 12 -10 12 -7 0 -9 -3 -6 -7z m167
-104 c0 -4 -10 -13 -22 -20 -18 -10 -20 -9 -15 6 4 9 7 21 7 26 0 4 7 6 15 3
8 -4 15 -10 15 -15z m-106 4 c4 -4 15 -8 23 -8 9 0 18 -6 21 -14 3 -10 0 -12
-13 -7 -15 5 -16 4 -5 -9 7 -8 17 -12 24 -8 6 3 8 2 3 -2 -4 -5 3 -20 15 -33
l23 -25 -22 12 c-13 6 -23 8 -23 3 0 -5 10 -16 23 -25 12 -8 20 -17 17 -21
-10 -10 -60 44 -54 58 8 22 -37 32 -51 12 -16 -21 -19 -20 -60 7 -36 23 -48
44 -19 33 15 -6 15 -4 3 11 -13 15 -12 16 11 10 14 -4 31 -7 38 -7 6 0 12 -7
12 -15 0 -17 9 -19 30 -5 12 8 12 10 -3 16 -9 3 -17 10 -17 15 0 11 14 12 24
2z m301 -63 c3 -5 1 -10 -4 -10 -6 0 -11 5 -11 10 0 6 2 10 4 10 3 0 8 -4 11
-10z m-17 -38 c2 -7 -2 -10 -12 -6 -9 3 -16 11 -16 16 0 13 23 5 28 -10z
m-258 -7 c0 -8 -4 -15 -9 -15 -5 0 -11 7 -15 15 -3 9 0 15 9 15 8 0 15 -7 15
-15z"/>
<path d="M1665 2340 c-3 -5 1 -10 10 -10 9 0 13 5 10 10 -3 6 -8 10 -10 10 -2
0 -7 -4 -10 -10z"/>
<path d="M1973 2333 c-15 -5 -17 -23 -4 -23 5 0 11 7 15 15 3 8 4 15 3 14 -1
0 -8 -3 -14 -6z"/>
<path d="M1996 2315 c-26 -24 -30 -25 -45 -11 -20 18 -31 20 -31 6 0 -16 51
-45 58 -33 9 14 84 2 89 -13 2 -7 -7 -10 -24 -7 l-28 4 28 -16 c15 -9 25 -21
21 -26 -4 -6 -10 -5 -17 4 -7 8 -23 18 -37 22 -22 7 -23 6 -11 -9 7 -9 19 -16
26 -16 7 0 26 -15 41 -32 15 -18 25 -25 21 -15 -5 13 -3 17 5 14 7 -2 12 -8
11 -13 0 -5 5 -15 13 -22 22 -20 16 2 -11 42 -13 20 -20 36 -14 36 6 0 7 5 3
12 -5 8 -2 9 9 5 10 -3 17 -3 17 1 0 10 -69 72 -80 72 -5 0 -10 5 -12 11 -2 6
-16 -1 -32 -16z"/>
<path d="M2516 2303 c9 -38 14 -42 14 -10 0 14 -5 29 -10 32 -7 4 -8 -3 -4
-22z"/>
<path d="M510 2281 c0 -12 6 -21 16 -21 9 0 14 7 12 17 -5 25 -28 28 -28 4z"/>
<path d="M1420 2266 c0 -9 5 -16 10 -16 6 0 10 4 10 9 0 6 -4 13 -10 16 -5 3
-10 -1 -10 -9z"/>
<path d="M2144 2258 c3 -7 9 -21 12 -30 6 -17 44 -26 44 -10 0 9 -45 52 -55
52 -4 0 -4 -6 -1 -12z"/>
<path d="M2580 2256 c0 -16 40 -69 47 -62 5 5 -35 76 -43 76 -2 0 -4 -6 -4
-14z"/>
<path d="M2686 2257 c3 -10 9 -15 12 -12 3 3 0 11 -7 18 -10 9 -11 8 -5 -6z"/>
<path d="M2419 2232 c15 -27 30 -36 27 -16 -1 9 -10 21 -20 26 -16 9 -16 7 -7
-10z"/>
<path d="M525 2210 c-3 -5 -1 -10 4 -10 6 0 11 5 11 10 0 6 -2 10 -4 10 -3 0
-8 -4 -11 -10z"/>
<path d="M2530 2206 c0 -2 7 -9 15 -16 13 -11 14 -10 9 4 -5 14 -24 23 -24 12z"/>
<path d="M2710 2203 c0 -4 5 -15 10 -23 8 -13 10 -13 10 2 0 9 -4 20 -10 23
-5 3 -10 3 -10 -2z"/>
<path d="M2319 2182 c13 -9 38 -32 56 -51 l33 -34 -1 38 c-1 21 -3 33 -5 26
-4 -12 -62 17 -62 31 0 4 -10 8 -22 8 l-23 -1 24 -17z"/>
<path d="M1576 2162 c-3 -6 -1 -14 5 -17 15 -10 25 3 12 16 -7 7 -13 7 -17 1z"/>
<path d="M2145 2160 c3 -5 8 -10 11 -10 2 0 4 5 4 10 0 6 -5 10 -11 10 -5 0
-7 -4 -4 -10z"/>
<path d="M2480 2155 c0 -8 5 -15 10 -15 6 0 10 7 10 15 0 8 -4 15 -10 15 -5 0
-10 -7 -10 -15z"/>
<path d="M2730 2155 c0 -5 5 -17 10 -25 5 -8 10 -10 10 -5 0 6 -5 17 -10 25
-5 8 -10 11 -10 5z"/>
<path d="M2230 2140 c-12 -8 -11 -10 8 -10 16 0 22 -6 22 -21 0 -15 5 -19 15
-15 9 3 15 0 15 -9 0 -8 7 -15 15 -15 23 0 18 13 -16 48 -34 35 -37 36 -59 22z"/>
<path d="M1876 2120 c-17 -6 -18 -7 -3 -13 9 -3 17 -2 17 3 0 5 7 7 15 4 8 -4
15 -4 15 -1 0 10 -25 14 -44 7z"/>
<path d="M2020 2111 c0 -5 7 -12 16 -15 24 -9 28 -7 14 9 -14 17 -30 20 -30 6z"/>
<path d="M2762 2090 c7 -10 14 -18 15 -16 6 6 -9 36 -18 36 -5 0 -4 -9 3 -20z"/>
<path d="M1990 2090 c0 -5 5 -10 10 -10 6 0 10 5 10 10 0 6 -4 10 -10 10 -5 0
-10 -4 -10 -10z"/>
<path d="M1750 2081 c0 -6 -8 -7 -17 -4 -16 6 -16 5 -5 -10 8 -9 11 -21 7 -27
-8 -12 10 -36 37 -51 14 -7 18 -6 18 6 0 8 -7 15 -16 15 -10 0 -14 6 -11 14 3
8 1 17 -6 19 -9 3 -9 8 1 19 9 11 10 18 2 23 -5 3 -10 2 -10 -4z"/>
<path d="M1891 2076 c2 -2 15 -9 29 -16 23 -12 24 -12 11 3 -7 10 -20 17 -29
17 -8 0 -13 -2 -11 -4z"/>
<path d="M2028 2068 c6 -6 18 -8 28 -6 14 3 12 5 -9 10 -19 3 -25 2 -19 -4z"/>
<path d="M2414 2068 c-4 -6 -3 -8 3 -5 14 9 24 -17 17 -40 -5 -15 -4 -16 5 -3
6 8 11 22 11 31 0 20 -27 33 -36 17z"/>
<path d="M2376 2055 c4 -8 11 -15 16 -15 6 0 5 6 -2 15 -7 8 -14 15 -16 15 -2
0 -1 -7 2 -15z"/>
<path d="M2340 2056 c0 -4 7 -14 15 -22 8 -9 15 -11 15 -6 0 5 -7 15 -15 22
-8 7 -15 9 -15 6z"/>
<path d="M1810 2042 c0 -12 19 -26 26 -19 2 2 -2 10 -11 17 -9 8 -15 8 -15 2z"/>
<path d="M1641 2023 c-1 -13 -4 -23 -9 -23 -4 0 -13 -9 -19 -19 -10 -16 -9
-22 4 -33 14 -11 15 -10 9 8 -7 23 19 43 27 21 2 -7 7 -9 11 -6 4 4 0 22 -8
40 -12 29 -15 30 -15 12z"/>
<path d="M1880 2031 c0 -6 4 -13 10 -16 6 -3 7 1 4 9 -7 18 -14 21 -14 7z"/>
<path d="M1960 2033 c0 -5 9 -18 20 -28 11 -10 20 -14 20 -8 0 5 -9 18 -20 28
-11 10 -20 14 -20 8z"/>
<path d="M2255 2030 c3 -5 8 -10 11 -10 2 0 4 5 4 10 0 6 -5 10 -11 10 -5 0
-7 -4 -4 -10z"/>
<path d="M1530 2020 c0 -5 7 -10 15 -10 8 0 12 -6 9 -14 -5 -13 24 -31 34 -21
3 3 0 5 -6 5 -7 0 -12 9 -12 19 0 10 -7 22 -16 25 -21 8 -24 8 -24 -4z"/>
<path d="M1585 2000 c3 -5 10 -10 16 -10 5 0 9 5 9 10 0 6 -7 10 -16 10 -8 0
-12 -4 -9 -10z"/>
<path d="M1810 2000 c0 -5 5 -10 11 -10 5 0 7 5 4 10 -3 6 -8 10 -11 10 -2 0
-4 -4 -4 -10z"/>
<path d="M1965 1980 c10 -11 20 -20 22 -20 2 0 -2 9 -9 20 -7 11 -17 20 -22
20 -5 0 -1 -9 9 -20z"/>
<path d="M2377 1989 c7 -7 15 -10 18 -7 3 3 -2 9 -12 12 -14 6 -15 5 -6 -5z"/>
<path d="M2100 1960 c0 -5 17 -27 38 -48 20 -20 34 -33 30 -28 -5 6 -8 16 -8
23 0 15 -40 63 -52 63 -4 0 -8 -4 -8 -10z"/>
<path d="M2320 1955 c0 -17 32 -44 46 -38 17 6 19 26 2 20 -7 -2 -21 2 -30 11
-10 8 -18 11 -18 7z"/>
<path d="M2505 1950 c-3 -5 1 -10 10 -10 9 0 13 5 10 10 -3 6 -8 10 -10 10 -2
0 -7 -4 -10 -10z"/>
<path d="M2017 1936 c-4 -10 -1 -19 8 -22 8 -4 15 -12 15 -20 0 -8 6 -14 13
-14 7 0 18 -9 25 -20 7 -11 17 -20 23 -20 13 0 -23 49 -37 50 -6 0 -17 14 -25
32 -13 26 -17 28 -22 14z"/>
<path d="M2225 1939 c-9 -13 0 -22 24 -24 16 -1 17 1 8 17 -13 21 -23 23 -32
7z"/>
<path d="M1440 1930 c0 -5 9 -14 20 -20 19 -10 20 -10 8 9 -13 22 -28 28 -28
11z"/>
<path d="M1580 1930 c0 -5 5 -10 11 -10 5 0 7 5 4 10 -3 6 -8 10 -11 10 -2 0
-4 -4 -4 -10z"/>
<path d="M2050 1930 c0 -5 5 -10 11 -10 5 0 7 5 4 10 -3 6 -8 10 -11 10 -2 0
-4 -4 -4 -10z"/>
<path d="M1800 1921 c0 -6 4 -13 10 -16 6 -3 7 1 4 9 -7 18 -14 21 -14 7z"/>
<path d="M2710 1925 c1 -13 60 -82 60 -70 0 6 -14 26 -30 45 -16 19 -30 31
-30 25z"/>
<path d="M3412 1890 c-23 -21 -53 -63 -67 -91 -32 -62 -70 -100 -92 -92 -12 5
-14 3 -8 -7 5 -9 4 -11 -4 -6 -6 4 -10 13 -9 19 3 15 -51 107 -63 107 -12 0
-11 -17 1 -25 6 -3 10 -14 10 -24 0 -10 7 -24 15 -31 8 -7 15 -22 15 -33 0
-11 7 -25 16 -31 14 -11 12 -16 -16 -46 l-31 -33 -59 59 c-38 39 -70 61 -92
66 -36 8 -78 1 -78 -13 0 -5 10 -8 23 -8 24 1 76 -9 89 -17 11 -7 10 -34 -1
-34 -5 0 -11 6 -14 14 -13 33 -113 22 -103 -11 7 -23 -8 -48 -23 -39 -8 5 -8
13 -1 26 12 23 13 40 1 40 -25 0 -15 -127 15 -197 14 -31 43 -182 49 -253 1
-19 -2 -64 -7 -100 -8 -47 -7 -85 2 -140 7 -41 14 -93 16 -114 2 -21 8 -55 14
-75 13 -46 13 -101 0 -101 -5 0 -10 -6 -10 -13 0 -7 -18 -28 -40 -47 -21 -18
-37 -38 -33 -43 3 -6 2 -7 -4 -4 -5 3 -17 -3 -27 -15 -14 -16 -20 -18 -26 -8
-6 9 -13 5 -25 -14 -16 -24 -44 -39 -30 -16 9 15 -17 11 -40 -6 -11 -8 -20
-23 -20 -32 0 -10 -9 -18 -22 -20 -24 -4 -48 -52 -40 -82 4 -17 1 -19 -23 -15
-24 4 -29 2 -27 -14 0 -11 5 -17 10 -14 14 8 27 -19 21 -41 -5 -14 -2 -18 9
-13 11 4 14 1 11 -7 -3 -7 2 -20 10 -27 44 -40 45 -40 49 -6 2 17 4 3 5 -33 1
-88 -6 -120 -26 -120 -28 0 -23 -59 5 -66 12 -3 25 -15 28 -25 6 -19 19 -19
393 -17 l387 3 4 40 c2 32 5 36 11 20 7 -16 9 -12 9 17 1 32 -4 40 -39 65 -22
15 -38 33 -35 40 2 7 0 15 -5 18 -6 4 -10 10 -10 15 0 5 18 -9 39 -30 22 -22
41 -40 44 -40 7 0 0 474 -7 491 -4 10 3 35 18 61 14 25 22 49 18 53 -4 5 -2 5
5 2 6 -4 14 -1 16 5 4 10 8 10 15 -1 8 -11 17 -8 48 16 22 17 52 34 68 37 28
7 44 19 121 93 63 59 70 70 55 88 -7 8 -26 15 -42 15 -17 0 -27 4 -23 10 3 6
23 10 43 10 28 0 33 3 24 12 -7 7 -56 15 -117 18 -107 6 -148 21 -114 40 9 6
20 22 23 36 4 14 56 77 116 140 61 63 110 119 110 123 0 5 -7 12 -16 15 -16 6
-16 30 1 82 6 19 0 24 -39 39 -25 10 -43 21 -40 26 11 19 -47 8 -113 -22 l-68
-30 -29 32 c-26 29 -28 36 -22 83 16 127 18 158 11 203 -6 42 -8 45 -16 25
-12 -32 -34 -22 -34 14 -1 20 -8 32 -25 41 -33 17 -50 16 -50 -1 0 -16 -27
-29 -41 -20 -6 3 -7 14 -4 25 9 27 3 24 -43 -21z m8 -1350 c0 -5 -4 -10 -10
-10 -5 0 -10 5 -10 10 0 6 5 10 10 10 6 0 10 -4 10 -10z m-647 -87 c-4 -10
-12 -28 -19 -41 -9 -18 -13 -20 -17 -7 -4 8 -2 15 3 15 6 0 10 6 10 13 0 11
19 37 27 37 1 0 -1 -8 -4 -17z m678 -190 c13 -17 13 -17 -6 -3 -11 8 -22 16
-24 17 -2 2 0 3 6 3 6 0 17 -8 24 -17z m-685 -168 c-21 -16 -32 -13 -21 4 3 6
14 11 23 11 15 -1 15 -2 -2 -15z"/>
<path d="M2527 1900 c3 -11 9 -20 14 -20 11 0 11 3 3 24 -9 23 -23 20 -17 -4z"/>
<path d="M2099 1886 c14 -14 27 -26 29 -26 10 0 -26 44 -39 48 -8 3 -3 -7 10
-22z"/>
<path d="M3595 1900 c3 -5 8 -10 11 -10 2 0 4 5 4 10 0 6 -5 10 -11 10 -5 0
-7 -4 -4 -10z"/>
<path d="M1510 1881 c24 -20 40 -26 40 -16 0 2 -15 12 -32 20 l-33 16 25 -20z"/>
<path d="M1747 1889 c7 -7 15 -10 18 -7 3 3 -2 9 -12 12 -14 6 -15 5 -6 -5z"/>
<path d="M2210 1894 c0 -13 92 -94 107 -94 8 0 11 5 8 10 -3 6 -11 10 -16 10
-6 0 -22 14 -36 30 -25 31 -63 57 -63 44z"/>
<path d="M385 1880 c-3 -6 1 -7 9 -4 18 7 21 14 7 14 -6 0 -13 -4 -16 -10z"/>
<path d="M1990 1883 c8 -3 25 -15 38 -26 12 -11 22 -15 22 -9 0 14 -40 42 -60
41 -13 0 -13 -1 0 -6z"/>
<path d="M2305 1870 c3 -5 8 -10 11 -10 2 0 4 5 4 10 0 6 -5 10 -11 10 -5 0
-7 -4 -4 -10z"/>
<path d="M1745 1850 c3 -5 8 -10 11 -10 2 0 4 5 4 10 0 6 -5 10 -11 10 -5 0
-7 -4 -4 -10z"/>
<path d="M1390 1834 c0 -8 5 -12 10 -9 6 4 8 11 5 16 -9 14 -15 11 -15 -7z"/>
<path d="M1586 1842 c-2 -4 7 -13 21 -19 25 -12 25 -12 8 7 -20 22 -22 23 -29
12z"/>
<path d="M1650 1840 c0 -5 5 -10 10 -10 6 0 10 5 10 10 0 6 -4 10 -10 10 -5 0
-10 -4 -10 -10z"/>
<path d="M2150 1838 c0 -10 9 -23 20 -30 11 -7 20 -17 20 -22 0 -5 -9 -1 -20
9 -28 25 -37 12 -10 -15 18 -18 24 -20 31 -9 12 19 12 20 -16 54 -19 23 -25
26 -25 13z"/>
<path d="M2490 1820 c6 -11 15 -20 20 -20 14 0 12 9 -4 26 -21 20 -28 17 -16
-6z"/>
<path d="M2570 1831 c0 -5 7 -11 14 -14 10 -4 13 -1 9 9 -6 15 -23 19 -23 5z"/>
<path d="M260 1820 c-8 -5 -10 -10 -5 -10 6 0 17 5 25 10 8 5 11 10 5 10 -5 0
-17 -5 -25 -10z"/>
<path d="M1880 1826 c0 -3 11 -17 25 -32 17 -19 25 -22 25 -12 0 9 -11 23 -25
32 -14 9 -25 14 -25 12z"/>
<path d="M2020 1810 c6 -11 15 -20 21 -20 6 0 6 7 -1 20 -6 11 -15 20 -21 20
-6 0 -6 -7 1 -20z"/>
<path d="M2207 1814 c6 -15 23 -19 23 -5 0 5 -7 11 -14 14 -10 4 -13 1 -9 -9z"/>
<path d="M2240 1826 c0 -3 11 -22 25 -42 24 -35 25 -35 25 -12 0 16 -9 32 -25
42 -14 9 -25 14 -25 12z"/>
<path d="M530 1808 c0 -6 -8 -20 -17 -30 -16 -18 -16 -18 8 -10 24 9 40 52 20
52 -6 0 -11 -5 -11 -12z"/>
<path d="M1940 1810 c0 -5 5 -10 11 -10 5 0 7 5 4 10 -3 6 -8 10 -11 10 -2 0
-4 -4 -4 -10z"/>
<path d="M2088 1794 c3 -17 9 -23 19 -19 11 3 13 1 10 -10 -7 -15 13 -68 36
-97 14 -17 47 -25 47 -12 0 16 -43 74 -55 74 -17 0 -27 28 -12 33 8 3 3 14
-12 31 -31 33 -40 33 -33 0z"/>
<path d="M2378 1795 c2 -14 14 -32 25 -40 29 -20 33 -11 8 16 -12 13 -21 29
-21 36 0 7 -4 13 -9 13 -4 0 -6 -11 -3 -25z"/>
<path d="M1410 1802 c0 -5 7 -15 15 -22 8 -7 15 -8 15 -2 0 5 -7 15 -15 22 -8
7 -15 8 -15 2z"/>
<path d="M1842 1785 c42 -93 58 -114 58 -75 0 12 -14 35 -31 53 -17 18 -29 28
-27 22z"/>
<path d="M2230 1781 c0 -6 5 -13 10 -16 6 -3 10 1 10 9 0 9 -4 16 -10 16 -5 0
-10 -4 -10 -9z"/>
<path d="M1980 1774 c0 -14 78 -69 87 -60 8 7 -7 27 -16 21 -5 -2 -19 7 -31
20 -22 24 -40 32 -40 19z"/>
<path d="M2066 1765 c4 -11 13 -27 21 -36 12 -14 12 -17 -2 -22 -8 -4 -15 -12
-15 -19 0 -9 3 -9 11 2 8 12 9 9 4 -9 -6 -19 -4 -23 9 -18 8 3 18 1 22 -5 4
-7 3 -8 -4 -4 -22 13 -12 -10 13 -34 29 -27 32 -15 9 38 -10 20 -17 42 -18 47
-1 6 -13 26 -29 45 -16 21 -25 27 -21 15z"/>
<path d="M2337 1769 c6 -6 9 -18 6 -25 -3 -8 0 -14 6 -14 6 0 11 4 11 9 0 19
-12 41 -23 41 -8 0 -8 -3 0 -11z"/>
<path d="M2528 1759 c5 -13 14 -25 20 -27 8 -2 9 3 4 19 -5 13 -14 25 -20 27
-8 2 -9 -3 -4 -19z"/>
<path d="M538 1739 c-14 -15 -14 -18 -2 -23 8 -3 14 1 14 8 0 8 5 16 12 18 7
3 8 7 3 10 -6 2 -18 -3 -27 -13z"/>
<path d="M1683 1732 c15 -19 27 -40 27 -48 0 -9 5 -12 11 -8 6 3 15 0 20 -7 4
-7 10 -11 13 -8 3 3 -18 27 -46 55 -33 31 -42 37 -25 16z"/>
<path d="M2140 1750 c0 -5 5 -10 10 -10 6 0 10 5 10 10 0 6 -4 10 -10 10 -5 0
-10 -4 -10 -10z"/>
<path d="M2577 1753 c-4 -3 5 -17 19 -30 34 -31 45 -21 12 12 -14 13 -28 22
-31 18z"/>
<path d="M2175 1740 c-3 -5 -1 -10 4 -10 6 0 11 5 11 10 0 6 -2 10 -4 10 -3 0
-8 -4 -11 -10z"/>
<path d="M1380 1723 c0 -10 4 -14 8 -8 4 6 11 13 16 18 5 4 2 7 -7 7 -10 0
-17 -8 -17 -17z"/>
<path d="M1811 1724 c0 -11 3 -14 6 -6 3 7 2 16 -1 19 -3 4 -6 -2 -5 -13z"/>
<path d="M1620 1721 c0 -6 4 -13 10 -16 6 -3 7 1 4 9 -7 18 -14 21 -14 7z"/>
<path d="M2417 1701 c17 -16 29 -32 26 -35 -3 -3 3 -13 13 -23 17 -17 18 -17
11 0 -4 10 -7 24 -7 31 0 19 -39 56 -58 56 -13 -1 -9 -8 15 -29z"/>
<path d="M1918 1708 c9 -11 10 -18 2 -23 -5 -3 -10 -11 -10 -16 0 -6 3 -8 8
-6 7 5 32 -17 32 -28 1 -9 11 -40 20 -57 6 -11 4 -18 -6 -22 -21 -8 -21 -8
-27 14 -3 11 -10 20 -16 20 -14 0 -14 -17 -1 -25 6 -3 10 -11 10 -16 0 -6 -15
2 -32 17 -18 15 -32 31 -30 36 1 4 -2 8 -8 8 -5 0 -10 5 -10 11 0 6 -9 22 -20
36 -14 17 -20 21 -20 10 0 -8 7 -17 15 -21 8 -3 12 -12 9 -21 -4 -8 -1 -22 6
-30 16 -20 6 -19 -14 1 -9 8 -16 11 -16 6 0 -5 6 -15 14 -22 8 -6 12 -19 9
-28 -3 -9 -2 -14 2 -9 9 8 45 -20 45 -35 0 -5 -10 -8 -22 -6 -16 2 -30 17 -44
46 -11 23 -23 39 -27 36 -4 -4 -15 0 -26 10 -17 16 -19 16 -24 -5 -3 -11 -3
-18 0 -15 8 7 33 -13 33 -26 0 -6 -7 -5 -15 2 -12 10 -15 10 -15 -3 0 -9 5
-19 10 -22 17 -11 11 -25 -7 -18 -16 6 -16 5 -4 -10 16 -20 24 -90 10 -81 -5
3 -10 -5 -10 -18 -1 -13 -6 1 -11 31 -7 36 -13 50 -20 43 -6 -6 -7 -16 -2 -24
5 -7 9 -24 10 -38 2 -37 26 -93 47 -109 13 -9 17 -21 13 -37 -7 -28 2 -31 20
-6 12 16 13 15 23 -8 l10 -25 1 25 c1 22 3 21 22 -15 27 -52 27 -52 39 -35 9
12 10 12 5 -3 -3 -10 2 -25 13 -36 19 -19 20 -19 34 11 14 29 13 35 -11 92
-14 34 -30 63 -34 64 -12 5 -10 32 2 32 6 0 10 -5 10 -12 0 -6 3 -8 6 -5 4 4
1 13 -5 21 -8 10 -9 16 -1 21 5 3 10 1 10 -5 0 -6 5 -8 12 -4 7 4 8 3 4 -4 -4
-7 -2 -12 4 -12 6 0 14 10 19 22 8 22 9 22 41 -15 42 -46 61 -49 26 -3 -27 35
-36 60 -14 38 18 -18 28 -15 28 8 0 17 3 18 26 10 34 -13 41 -13 26 2 -7 7
-12 16 -12 20 0 14 27 9 40 -7 7 -8 16 -15 21 -15 5 0 6 7 3 15 -4 8 -1 15 5
15 6 0 11 -4 11 -10 0 -5 5 -10 11 -10 6 0 9 7 5 15 -3 8 -1 15 4 15 5 0 15
-7 24 -15 8 -8 20 -15 26 -15 14 0 -15 57 -32 63 -7 2 -9 8 -5 13 4 5 11 4 15
-2 4 -6 22 -16 40 -24 19 -7 40 -19 47 -27 9 -8 16 -9 20 -3 3 6 -2 14 -12 18
-33 14 -94 54 -89 59 3 3 17 -3 33 -14 15 -11 36 -18 45 -16 15 4 15 6 -3 24
-22 22 -17 39 9 38 11 0 12 -3 5 -6 -18 -7 -16 -23 2 -23 8 0 15 4 15 10 0 5
7 7 15 4 18 -7 37 35 24 52 -5 6 -5 14 -1 19 7 7 -38 -3 -47 -11 -2 -2 2 -10
9 -19 11 -13 10 -14 -3 -9 -9 3 -23 17 -32 31 -14 20 -19 23 -26 12 -7 -11 -9
-10 -9 4 0 28 -33 17 -35 -11 -1 -17 5 -26 22 -33 31 -12 29 -25 -4 -23 -17 0
-29 8 -34 22 -5 12 -13 22 -20 22 -6 0 -9 -7 -6 -15 4 -8 1 -17 -5 -21 -7 -4
-5 -10 6 -16 9 -5 16 -14 16 -19 0 -6 -4 -7 -10 -4 -5 3 -10 1 -10 -4 0 -6 -5
-11 -11 -11 -6 0 -8 7 -5 16 4 11 1 14 -12 12 -21 -4 -55 46 -47 70 3 10 -6
30 -21 47 -14 17 -32 39 -40 49 -7 11 -16 17 -19 14 -7 -7 15 -58 25 -58 4 0
6 -10 4 -22 -1 -13 -3 -26 -3 -30 -2 -20 -21 -5 -21 17 0 15 -6 25 -15 25 -8
0 -22 8 -32 18 -33 31 -69 58 -55 40z m-124 -182 c-3 -9 -10 -13 -16 -10 -5 3
-4 12 3 20 15 18 22 13 13 -10z m114 -6 c7 -11 9 -20 4 -20 -4 0 -13 9 -20 20
-7 11 -9 20 -4 20 4 0 13 -9 20 -20z m92 -10 c6 9 12 10 26 1 18 -10 18 -10
-3 -11 -13 0 -26 0 -30 -1 -5 0 -8 6 -9 13 -1 9 1 8 4 -1 3 -11 6 -11 12 -1z
m-200 -26 c0 -8 -5 -12 -10 -9 -6 4 -8 11 -5 16 9 14 15 11 15 -7z m155 -12
c-3 -3 -11 0 -18 7 -9 10 -8 11 6 5 10 -3 15 -9 12 -12z m-65 -13 c0 -5 -4 -9
-10 -9 -5 0 -10 7 -10 16 0 8 5 12 10 9 6 -3 10 -10 10 -16z m-70 -169 c0 -13
-1 -13 -10 0 -5 8 -10 22 -10 30 0 13 1 13 10 0 5 -8 10 -22 10 -30z m106 -60
c0 -20 -7 -25 -19 -14 -7 7 2 34 12 34 4 0 7 -9 7 -20z m7 -45 c-3 -9 -8 -14
-10 -11 -3 3 -2 9 2 15 9 16 15 13 8 -4z"/>
<path d="M2504 1710 c3 -8 9 -23 12 -32 4 -10 10 -18 15 -18 14 0 10 13 -12
40 -11 14 -18 18 -15 10z"/>
<path d="M2261 1694 c-1 -12 6 -28 16 -35 15 -13 15 -12 6 6 -6 11 -13 27 -16
35 -4 10 -6 8 -6 -6z"/>
<path d="M2297 1704 c-8 -13 20 -41 30 -30 3 3 1 6 -5 6 -6 0 -12 8 -14 18 -2
11 -6 13 -11 6z"/>
<path d="M1570 1691 c0 -5 5 -13 10 -16 6 -3 10 -2 10 4 0 5 -4 13 -10 16 -5
3 -10 2 -10 -4z"/>
<path d="M1853 1669 c23 -20 37 -40 37 -55 0 -13 5 -24 10 -24 6 0 8 11 4 28
-6 28 -56 82 -76 82 -6 0 5 -14 25 -31z"/>
<path d="M1380 1681 c0 -6 4 -13 10 -16 6 -3 7 1 4 9 -7 18 -14 21 -14 7z"/>
<path d="M1525 1660 c10 -11 20 -20 22 -20 2 0 -2 9 -9 20 -7 11 -17 20 -22
20 -5 0 -1 -9 9 -20z"/>
<path d="M2400 1652 c0 -5 -12 -7 -27 -5 l-28 4 28 -18 c15 -10 27 -21 27 -25
0 -5 5 -8 11 -8 5 0 7 5 4 10 -12 19 14 10 35 -12 15 -16 20 -18 20 -7 0 9
-10 25 -22 36 -31 27 -48 36 -48 25z"/>
<path d="M2300 1635 c0 -9 5 -15 11 -13 6 2 11 8 11 13 0 5 -5 11 -11 13 -6 2
-11 -4 -11 -13z"/>
<path d="M2656 1635 c4 -8 8 -15 10 -15 2 0 4 7 4 15 0 8 -4 15 -10 15 -5 0
-7 -7 -4 -15z"/>
<path d="M1740 1630 c0 -5 5 -10 11 -10 5 0 7 5 4 10 -3 6 -8 10 -11 10 -2 0
-4 -4 -4 -10z"/>
<path d="M1780 1630 c0 -5 5 -10 11 -10 5 0 7 5 4 10 -3 6 -8 10 -11 10 -2 0
-4 -4 -4 -10z"/>
<path d="M1922 1608 c2 -6 10 -14 16 -16 7 -2 10 2 6 12 -7 18 -28 22 -22 4z"/>
<path d="M2111 1594 c-1 -31 21 -46 39 -26 13 14 12 15 -3 9 -13 -5 -20 0 -27
16 -9 22 -9 22 -9 1z"/>
<path d="M630 1565 c-9 -11 -9 -18 2 -34 13 -19 14 -18 15 15 1 38 0 40 -17
19z"/>
<path d="M1270 1570 c0 -5 5 -10 10 -10 6 0 10 5 10 10 0 6 -4 10 -10 10 -5 0
-10 -4 -10 -10z"/>
<path d="M2430 1569 c0 -5 5 -7 10 -4 6 3 10 8 10 11 0 2 -4 4 -10 4 -5 0 -10
-5 -10 -11z"/>
<path d="M1660 1565 c0 -5 5 -17 10 -25 5 -8 10 -10 10 -5 0 6 -5 17 -10 25
-5 8 -10 11 -10 5z"/>
<path d="M1280 1543 c0 -13 29 -38 35 -31 3 3 -4 13 -15 23 -11 10 -20 13 -20
8z"/>
<path d="M1840 1519 c0 -5 5 -7 10 -4 6 3 10 8 10 11 0 2 -4 4 -10 4 -5 0 -10
-5 -10 -11z"/>
<path d="M667 1506 c-20 -20 -21 -30 -7 -57 10 -18 12 -18 27 -4 12 12 13 19
4 28 -16 16 -14 32 3 18 10 -8 16 -9 21 -1 3 5 0 10 -9 10 -8 0 -16 5 -18 11
-3 8 -10 6 -21 -5z"/>
<path d="M1600 1505 c7 -9 15 -13 17 -11 7 7 -7 26 -19 26 -6 0 -6 -6 2 -15z"/>
<path d="M1347 1489 c7 -7 15 -10 18 -7 3 3 -2 9 -12 12 -14 6 -15 5 -6 -5z"/>
<path d="M760 1480 c0 -5 5 -10 10 -10 6 0 10 5 10 10 0 6 -4 10 -10 10 -5 0
-10 -4 -10 -10z"/>
<path d="M721 1468 c0 -10 -5 -18 -11 -18 -5 0 -10 -6 -10 -14 0 -8 -6 -17
-12 -19 -10 -4 -10 -8 1 -15 8 -6 11 -18 6 -31 -3 -11 -3 -21 2 -21 13 0 35
84 30 112 -3 14 -5 16 -6 6z"/>
<path d="M1400 1455 c0 -8 51 -55 60 -55 5 0 12 5 15 10 3 6 -1 10 -10 10 -8
0 -23 9 -32 20 -16 18 -33 26 -33 15z"/>
<path d="M1425 1390 c4 -6 11 -8 16 -5 14 9 11 15 -7 15 -8 0 -12 -5 -9 -10z"/>
<path d="M1450 1370 c0 -5 5 -10 10 -10 6 0 10 5 10 10 0 6 -4 10 -10 10 -5 0
-10 -4 -10 -10z"/>
<path d="M1940 1330 c0 -5 5 -10 10 -10 6 0 10 5 10 10 0 6 -4 10 -10 10 -5 0
-10 -4 -10 -10z"/>
<path d="M1493 1304 c0 -17 2 -22 7 -13 5 6 6 18 3 26 -8 19 -10 16 -10 -13z"/>
<path d="M680 1305 c0 -8 2 -15 4 -15 2 0 6 7 10 15 3 8 1 15 -4 15 -6 0 -10
-7 -10 -15z"/>
<path d="M735 1270 c3 -5 8 -10 11 -10 2 0 4 5 4 10 0 6 -5 10 -11 10 -5 0 -7
-4 -4 -10z"/>
<path d="M1967 1260 c-4 -16 -2 -19 7 -11 7 6 16 7 21 3 4 -4 6 -1 3 7 -7 23
-25 24 -31 1z"/>
<path d="M685 1260 c-3 -5 -1 -10 4 -10 6 0 11 5 11 10 0 6 -2 10 -4 10 -3 0
-8 -4 -11 -10z"/>
<path d="M1595 1261 c-3 -5 -1 -12 5 -16 5 -3 10 1 10 9 0 18 -6 21 -15 7z"/>
<path d="M1792 1234 c-11 -12 -10 -26 8 -84 12 -39 25 -68 29 -65 5 2 2 37 -6
77 -17 92 -15 89 -31 72z"/>
<path d="M1735 1230 c3 -5 8 -10 11 -10 2 0 4 5 4 10 0 6 -5 10 -11 10 -5 0
-7 -4 -4 -10z"/>
<path d="M773 1223 c-7 -2 -13 -11 -13 -19 0 -8 -4 -14 -9 -14 -12 0 -22 -28
-12 -34 4 -3 17 13 29 34 11 22 20 40 19 39 -1 0 -8 -3 -14 -6z"/>
<path d="M1650 1193 c1 -30 42 -85 61 -81 7 2 18 -15 24 -37 7 -22 14 -33 17
-25 6 18 -20 92 -35 102 -6 4 -17 2 -23 -3 -8 -7 -14 0 -18 25 -8 44 -26 57
-26 19z"/>
<path d="M1830 1210 c0 -5 5 -10 10 -10 6 0 10 5 10 10 0 6 -4 10 -10 10 -5 0
-10 -4 -10 -10z"/>
<path d="M1692 1192 c-18 -6 -4 -22 19 -22 10 0 19 6 19 13 0 14 -14 17 -38 9z"/>
<path d="M800 1179 c0 -5 5 -7 10 -4 6 3 10 8 10 11 0 2 -4 4 -10 4 -5 0 -10
-5 -10 -11z"/>
<path d="M1840 1179 c0 -21 89 -213 96 -206 5 5 -21 70 -56 140 -11 22 -20 45
-20 52 0 8 -4 17 -10 20 -5 3 -10 1 -10 -6z"/>
<path d="M1580 1174 c0 -3 6 -12 14 -20 8 -7 16 -19 18 -26 2 -6 10 -8 17 -4
9 6 5 14 -14 32 -26 24 -35 29 -35 18z"/>
<path d="M1740 1170 c0 -5 5 -10 11 -10 5 0 7 5 4 10 -3 6 -8 10 -11 10 -2 0
-4 -4 -4 -10z"/>
<path d="M803 1145 c-9 -25 4 -29 17 -6 7 15 7 21 0 21 -6 0 -13 -7 -17 -15z"/>
<path d="M1896 1135 c3 -16 9 -32 13 -35 5 -3 11 -15 15 -27 4 -13 12 -23 17
-23 5 0 9 -6 9 -14 0 -7 6 -19 14 -26 8 -6 12 -19 9 -28 -6 -15 -5 -15 11 -3
9 8 13 17 8 20 -13 8 -34 89 -27 101 3 6 -1 7 -9 4 -11 -4 -16 0 -16 11 0 11
-5 15 -15 11 -10 -4 -19 2 -26 17 -8 19 -9 18 -3 -8z"/>
<path d="M1490 1139 c1 -8 7 -25 15 -39 20 -36 18 -49 -4 -21 -20 26 -45 21
-37 -7 3 -10 1 -24 -4 -32 -7 -11 -10 -7 -10 16 0 20 -6 34 -16 38 -13 5 -14
1 -9 -24 7 -34 -13 -44 -22 -10 -3 11 -9 18 -13 15 -9 -5 12 -75 22 -75 5 0 8
7 8 16 0 8 4 13 8 10 5 -3 7 -18 4 -34 -2 -16 1 -33 7 -36 6 -4 11 0 11 11 0
10 7 27 15 37 8 11 15 28 15 38 0 10 4 18 9 18 5 0 8 -35 7 -77 -1 -43 -1 -70
2 -60 2 9 8 15 13 12 5 -4 9 11 10 32 0 31 2 35 10 18 7 -16 9 -14 6 13 -3 24
0 32 10 28 7 -3 13 -1 13 3 0 5 -6 11 -12 14 -10 4 -10 7 0 18 10 11 12 10 12
-3 0 -8 7 -21 15 -28 8 -7 14 -27 14 -44 l-1 -31 -7 30 c-3 17 -9 25 -13 19
-4 -6 0 -29 7 -52 8 -23 16 -55 17 -71 2 -23 5 -28 15 -19 19 15 16 65 -4 77
-10 6 -12 11 -5 11 17 0 15 34 -5 91 -11 29 -23 47 -30 45 -6 -3 -25 11 -42
31 -17 20 -31 30 -31 22z"/>
<path d="M1721 1014 c0 -11 3 -14 6 -6 3 7 2 16 -1 19 -3 4 -6 -2 -5 -13z"/>
<path d="M1630 986 c0 -9 5 -16 10 -16 6 0 10 4 10 9 0 6 -4 13 -10 16 -5 3
-10 -1 -10 -9z"/>
<path d="M1790 973 c0 -12 6 -37 14 -55 8 -18 19 -51 24 -73 26 -102 34 -127
38 -123 2 2 -1 31 -7 64 -13 69 -68 219 -69 187z"/>
<path d="M1896 977 c3 -10 9 -15 12 -12 3 3 0 11 -7 18 -10 9 -11 8 -5 -6z"/>
<path d="M2100 970 c0 -5 5 -10 11 -10 5 0 7 5 4 10 -3 6 -8 10 -11 10 -2 0
-4 -4 -4 -10z"/>
<path d="M1178 959 c-2 -8 4 -30 13 -49 21 -41 25 -17 5 30 -8 19 -15 27 -18
19z"/>
<path d="M1211 954 c0 -11 3 -14 6 -6 3 7 2 16 -1 19 -3 4 -6 -2 -5 -13z"/>
<path d="M1701 933 c1 -18 3 -21 6 -10 3 10 9 14 16 10 7 -4 6 1 -2 10 -18 23
-21 22 -20 -10z"/>
<path d="M1952 955 c23 -55 54 -115 61 -115 16 0 5 27 -29 75 -20 28 -34 46
-32 40z"/>
<path d="M1985 950 c3 -5 8 -10 11 -10 2 0 4 5 4 10 0 6 -5 10 -11 10 -5 0 -7
-4 -4 -10z"/>
<path d="M1230 875 c0 -37 4 -65 10 -65 6 0 10 28 10 65 0 37 -4 65 -10 65 -6
0 -10 -28 -10 -65z"/>
<path d="M1425 907 c-4 -20 -3 -42 1 -49 6 -9 11 0 15 27 4 22 3 44 -1 49 -5
5 -12 -7 -15 -27z"/>
<path d="M1920 932 c0 -13 62 -104 67 -98 6 5 -33 73 -54 94 -7 7 -13 9 -13 4z"/>
<path d="M2550 922 c0 -4 9 -13 20 -20 19 -12 20 -11 8 8 -13 20 -28 27 -28
12z"/>
<path d="M2015 910 c3 -5 8 -10 11 -10 2 0 4 5 4 10 0 6 -5 10 -11 10 -5 0 -7
-4 -4 -10z"/>
<path d="M1741 884 c0 -11 3 -14 6 -6 3 7 2 16 -1 19 -3 4 -6 -2 -5 -13z"/>
<path d="M1171 854 c0 -11 3 -14 6 -6 3 7 2 16 -1 19 -3 4 -6 -2 -5 -13z"/>
<path d="M1320 832 c0 -23 4 -42 9 -42 6 0 7 17 4 38 -8 51 -13 53 -13 4z"/>
<path d="M1711 854 c0 -11 3 -14 6 -6 3 7 2 16 -1 19 -3 4 -6 -2 -5 -13z"/>
<path d="M2757 840 c3 -11 7 -20 9 -20 2 0 4 9 4 20 0 11 -4 20 -9 20 -5 0 -7
-9 -4 -20z"/>
<path d="M1511 834 c0 -11 3 -14 6 -6 3 7 2 16 -1 19 -3 4 -6 -2 -5 -13z"/>
<path d="M2357 810 c9 -22 18 -39 19 -37 7 6 -17 77 -26 77 -4 0 -1 -18 7 -40z"/>
<path d="M2476 820 c10 -21 19 -30 22 -21 2 7 -6 23 -18 35 l-22 21 18 -35z"/>
<path d="M2106 825 c4 -8 11 -15 16 -15 6 0 5 6 -2 15 -7 8 -14 15 -16 15 -2
0 -1 -7 2 -15z"/>
<path d="M2565 818 c8 -27 35 -58 35 -41 0 7 -4 23 -10 37 -12 32 -34 35 -25
4z"/>
<path d="M1645 803 c3 -17 2 -48 -4 -67 -6 -25 -6 -36 1 -36 6 0 8 -11 6 -25
-6 -29 8 -44 16 -18 8 32 -1 154 -14 166 -9 9 -11 5 -5 -20z"/>
<path d="M1155 810 c-10 -15 5 -50 20 -50 11 0 12 6 4 30 -12 33 -15 35 -24
20z"/>
<path d="M2141 804 c0 -11 3 -14 6 -6 3 7 2 16 -1 19 -3 4 -6 -2 -5 -13z"/>
<path d="M2260 811 c0 -5 5 -13 10 -16 6 -3 10 -2 10 4 0 5 -4 13 -10 16 -5 3
-10 2 -10 -4z"/>
<path d="M1392 780 c0 -19 2 -27 5 -17 2 9 2 25 0 35 -3 9 -5 1 -5 -18z"/>
<path d="M1930 800 c0 -5 5 -10 10 -10 6 0 10 5 10 10 0 6 -4 10 -10 10 -5 0
-10 -4 -10 -10z"/>
<path d="M1296 788 c-11 -35 -13 -57 -6 -53 5 3 11 -1 13 -7 3 -7 6 6 6 30 1
41 -6 55 -13 30z"/>
<path d="M2424 748 c13 -29 30 -68 36 -85 13 -33 34 -48 23 -15 -14 42 -63
141 -73 147 -6 4 1 -17 14 -47z"/>
<path d="M2720 795 c0 -5 9 -23 20 -40 12 -18 20 -47 20 -72 0 -33 4 -43 16
-43 14 0 15 2 3 17 -13 15 -11 16 14 9 22 -5 28 -4 24 6 -2 7 -10 12 -16 10
-6 -1 -10 1 -9 5 2 9 -30 67 -54 97 -10 11 -17 17 -18 11z"/>
<path d="M2780 783 c0 -5 5 -15 10 -23 8 -12 10 -11 10 8 0 12 -4 22 -10 22
-5 0 -10 -3 -10 -7z"/>
<path d="M1237 767 c-8 -21 5 -157 15 -151 10 6 8 164 -3 164 -4 0 -9 -6 -12
-13z"/>
<path d="M1357 763 c-4 -3 -7 -22 -7 -41 0 -45 11 -35 14 12 1 20 1 36 0 36 0
0 -4 -3 -7 -7z"/>
<path d="M1437 757 c-3 -8 -1 -20 4 -28 6 -10 9 -7 9 14 0 29 -5 35 -13 14z"/>
<path d="M1601 754 c0 -11 3 -14 6 -6 3 7 2 16 -1 19 -3 4 -6 -2 -5 -13z"/>
<path d="M2334 750 c3 -14 6 -28 6 -32 0 -5 5 -8 10 -8 15 0 12 22 -7 45 -15
20 -15 19 -9 -5z"/>
<path d="M1976 744 c-11 -28 -6 -52 9 -56 12 -2 11 -6 -6 -16 -11 -8 -18 -9
-15 -3 4 6 0 23 -8 38 -19 37 -30 13 -18 -42 6 -29 13 -40 26 -40 9 0 22 -8
27 -18 8 -13 6 -17 -5 -17 -8 0 -16 3 -19 8 -2 4 -1 0 2 -8 2 -8 5 -35 6 -60
1 -25 9 -58 18 -75 9 -16 17 -40 17 -52 0 -25 16 -39 23 -21 7 20 30 -43 28
-75 -2 -17 3 -29 13 -33 18 -7 22 -30 6 -36 -12 -4 28 -88 41 -88 5 0 9 -5 9
-12 0 -18 117 -128 137 -128 14 0 13 3 -6 13 -30 15 -39 37 -16 37 12 0 3 14
-29 45 -25 25 -46 50 -46 55 0 21 21 8 56 -35 39 -46 71 -68 60 -40 -3 8 -1
15 4 15 6 0 10 -3 10 -7 0 -8 60 -38 96 -48 15 -4 24 0 28 11 3 9 13 14 21 10
8 -3 17 -2 19 3 3 4 -11 13 -30 20 -18 7 -34 18 -34 26 0 16 -80 86 -90 80 -4
-3 -13 2 -20 10 -10 12 -16 13 -26 4 -8 -6 -14 -17 -14 -24 0 -15 86 -75 107
-75 7 0 13 -4 13 -10 0 -5 -5 -10 -11 -10 -19 0 -79 32 -79 42 0 6 -6 8 -14 5
-10 -4 -18 4 -25 24 -5 16 -15 29 -20 29 -6 0 -11 4 -11 10 0 5 7 7 15 4 8 -4
15 -1 15 5 0 13 -56 71 -70 71 -16 0 -12 -17 6 -24 8 -3 12 -10 9 -16 -10 -16
-19 -12 -31 15 -9 18 -9 25 0 28 8 3 8 10 0 28 -7 13 -17 39 -24 57 -7 17 -16
32 -21 32 -5 0 -9 8 -9 18 0 20 -45 140 -80 214 -7 15 -10 34 -6 43 5 15 -17
85 -27 85 -3 0 -8 -7 -11 -16z m61 -212 c-5 -21 36 -96 46 -85 4 3 7 1 7 -5 0
-6 -4 -13 -10 -17 -14 -9 10 -54 26 -48 8 3 14 1 14 -3 0 -5 3 -19 6 -30 4
-16 0 -23 -15 -27 -22 -5 -30 8 -8 16 8 3 3 12 -14 28 -14 14 -28 33 -32 42
-4 10 -11 15 -17 12 -5 -3 -10 -3 -10 2 0 4 -3 19 -6 33 -5 24 -5 24 10 6 20
-24 21 -8 2 28 -12 24 -12 66 1 66 3 0 3 -8 0 -18z m83 -252 c0 -5 -2 -10 -4
-10 -3 0 -8 5 -11 10 -3 6 -1 10 4 10 6 0 11 -4 11 -10z m12 -60 c16 -25 27
-25 44 -3 7 10 16 15 20 10 8 -8 -29 -47 -45 -47 -5 0 -19 14 -31 30 -12 17
-17 30 -11 30 6 0 16 -9 23 -20z m28 -80 c0 -5 -2 -10 -4 -10 -3 0 -8 5 -11
10 -3 6 -1 10 4 10 6 0 11 -4 11 -10z m210 -5 c7 -8 8 -15 2 -15 -5 0 -15 7
-22 15 -7 8 -8 15 -2 15 5 0 15 -7 22 -15z"/>
<path d="M1911 734 c0 -11 3 -14 6 -6 3 7 2 16 -1 19 -3 4 -6 -2 -5 -13z"/>
<path d="M2810 730 c0 -5 5 -10 10 -10 6 0 10 5 10 10 0 6 -4 10 -10 10 -5 0
-10 -4 -10 -10z"/>
<path d="M1196 702 c-4 -13 -5 -26 -2 -29 10 -11 18 4 14 29 l-4 23 -8 -23z"/>
<path d="M2386 707 c3 -10 9 -15 12 -12 3 3 0 11 -7 18 -10 9 -11 8 -5 -6z"/>
<path d="M1281 705 c1 -19 18 -51 18 -35 0 8 -4 22 -9 30 -5 8 -9 11 -9 5z"/>
<path d="M2670 697 c0 -7 7 -22 16 -33 8 -10 12 -13 8 -5 -5 9 -3 12 4 7 7 -4
12 -14 12 -21 0 -13 29 -35 45 -35 10 0 -15 41 -44 71 -31 32 -41 36 -41 16z"/>
<path d="M1481 684 c0 -11 3 -14 6 -6 3 7 2 16 -1 19 -3 4 -6 -2 -5 -13z"/>
<path d="M2046 641 c7 -46 30 -111 40 -111 3 0 3 10 -1 23 -6 20 -5 21 8 5 20
-25 24 -23 23 12 -1 30 -20 41 -29 18 -2 -7 -9 5 -16 27 -17 63 -34 79 -25 26z"/>
<path d="M2220 674 c0 -4 9 -25 19 -48 11 -23 23 -50 27 -61 7 -19 8 -19 11 3
5 23 -34 112 -49 112 -4 0 -8 -3 -8 -6z"/>
<path d="M2371 644 c0 -11 3 -14 6 -6 3 7 2 16 -1 19 -3 4 -6 -2 -5 -13z"/>
<path d="M2905 647 c-55 -33 -75 -50 -75 -63 0 -11 6 -9 23 6 12 12 39 30 60
41 20 11 37 22 37 24 0 9 -24 4 -45 -8z"/>
<path d="M2140 613 c0 -32 5 -45 20 -53 11 -6 20 -19 20 -28 0 -10 9 -35 20
-57 11 -22 20 -44 20 -50 1 -11 70 -58 70 -47 0 11 -40 75 -64 101 -12 14 -17
25 -10 28 14 5 5 53 -11 59 -7 3 -10 16 -7 30 2 14 0 24 -7 24 -6 0 -11 -9
-11 -20 0 -11 -4 -20 -10 -20 -5 0 -10 10 -10 23 0 12 -5 29 -10 37 -7 11 -10
4 -10 -27z"/>
<path d="M1911 624 c0 -11 3 -14 6 -6 3 7 2 16 -1 19 -3 4 -6 -2 -5 -13z"/>
<path d="M2557 633 c-7 -11 10 -40 18 -31 4 4 3 14 -3 24 -5 9 -12 12 -15 7z"/>
<path d="M2781 621 c-8 -5 -9 -11 -3 -15 5 -3 15 1 22 9 14 16 3 20 -19 6z"/>
<path d="M1721 558 c1 -92 14 -117 21 -40 6 65 2 102 -13 102 -5 0 -9 -28 -8
-62z"/>
<path d="M2672 568 c-16 -16 -16 -42 1 -31 6 4 17 8 22 9 6 0 16 2 24 2 11 2
11 5 1 17 -15 18 -32 19 -48 3z"/>
<path d="M1476 524 c-4 -14 -5 -29 -2 -31 3 -3 8 7 12 21 3 15 4 29 1 32 -2 3
-8 -7 -11 -22z"/>
<path d="M2606 532 c-3 -6 -1 -14 5 -17 14 -9 20 -2 10 14 -6 8 -11 9 -15 3z"/>
<path d="M2120 466 c0 -36 5 -60 16 -70 21 -22 25 -20 20 7 -3 12 -8 43 -11
70 -8 64 -25 60 -25 -7z"/>
<path d="M2340 513 c0 -4 5 -15 10 -23 8 -13 10 -13 10 2 0 9 -4 20 -10 23 -5
3 -10 3 -10 -2z"/>
<path d="M2090 498 c0 -9 5 -20 10 -23 13 -8 13 5 0 25 -8 13 -10 13 -10 -2z"/>
<path d="M1761 484 c0 -11 3 -14 6 -6 3 7 2 16 -1 19 -3 4 -6 -2 -5 -13z"/>
<path d="M2410 458 c0 -23 11 -48 20 -48 11 0 4 40 -10 54 -7 7 -10 5 -10 -6z"/>
<path d="M1947 443 c-3 -5 1 -19 9 -33 l14 -25 -6 30 c-8 35 -10 39 -17 28z"/>
<path d="M2450 400 c0 -5 5 -10 11 -10 5 0 7 5 4 10 -3 6 -8 10 -11 10 -2 0
-4 -4 -4 -10z"/>
<path d="M2505 360 c3 -5 13 -10 21 -10 8 0 12 5 9 10 -3 6 -13 10 -21 10 -8
0 -12 -4 -9 -10z"/>
<path d="M2030 346 c0 -8 5 -18 10 -21 6 -3 10 1 10 9 0 8 -4 18 -10 21 -5 3
-10 -1 -10 -9z"/>
<path d="M2282 335 c12 -14 23 -25 25 -25 9 0 1 20 -13 34 -25 26 -36 18 -12
-9z"/>
<path d="M2460 340 c0 -5 5 -10 10 -10 6 0 10 5 10 10 0 6 -4 10 -10 10 -5 0
-10 -4 -10 -10z"/>
<path d="M2620 341 c0 -6 4 -13 10 -16 6 -3 7 1 4 9 -7 18 -14 21 -14 7z"/>
<path d="M2650 330 c0 -5 5 -10 10 -10 6 0 10 5 10 10 0 6 -4 10 -10 10 -5 0
-10 -4 -10 -10z"/>
<path d="M2520 300 c0 -19 71 -100 88 -100 4 0 8 13 9 29 1 21 -7 39 -26 60
-34 36 -71 42 -71 11z"/>
<path d="M2422 282 c25 -31 36 -26 18 7 -6 12 -18 21 -26 21 -12 0 -10 -6 8
-28z"/>
<path d="M2239 283 c12 -24 31 -39 31 -25 0 5 -10 17 -21 28 -22 19 -22 19
-10 -3z"/>
<path d="M2650 290 c0 -5 5 -10 11 -10 5 0 7 5 4 10 -3 6 -8 10 -11 10 -2 0
-4 -4 -4 -10z"/>
<path d="M2610 281 c0 -13 29 -35 37 -28 7 8 -15 37 -28 37 -5 0 -9 -4 -9 -9z"/>
<path d="M2340 260 c15 -14 26 -18 28 -10 5 14 3 16 -28 24 l-25 7 25 -21z"/>
<path d="M2457 238 c-4 -15 7 -38 40 -80 25 -32 52 -58 58 -58 12 0 25 21 25
39 0 16 -43 52 -56 47 -19 -7 -18 9 4 30 16 17 16 17 -5 12 -13 -3 -23 -3 -23
1 0 3 -9 12 -19 18 -16 10 -20 9 -24 -9z"/>
<path d="M2383 238 c18 -48 18 -58 3 -52 -9 3 -16 1 -16 -5 0 -6 4 -11 9 -11
5 0 31 -22 58 -50 29 -31 57 -50 71 -50 31 0 27 18 -16 68 -20 23 -50 58 -65
77 -28 34 -54 47 -44 23z"/>
<path d="M2676 195 c-9 -26 -7 -32 5 -12 6 10 9 21 6 23 -2 3 -7 -2 -11 -11z"/>
<path d="M2560 191 c0 -13 29 -35 37 -28 7 8 -15 37 -28 37 -5 0 -9 -4 -9 -9z"/>
<path d="M2626 113 c-11 -11 -6 -23 9 -23 8 0 15 4 15 9 0 13 -16 22 -24 14z"/>
<path d="M2580 94 c0 -24 32 -74 48 -74 8 0 12 3 10 8 -38 79 -58 102 -58 66z"/>
<path d="M2577 24 c-13 -13 -7 -24 14 -24 11 0 19 5 17 12 -5 14 -22 21 -31
12z"/>
</g>
</svg>
